<svg width="112" height="34" viewBox="0 0 112 34" fill="none" xmlns="http://www.w3.org/2000/svg">
<path d="M4.41117 0H106.936C109.307 0 111.232 1.91671 111.232 4.27739V29.3739C111.232 31.7346 109.307 33.6513 106.936 33.6513H4.41117C2.04065 33.6513 0.115967 31.7346 0.115967 29.3739V4.27739C0.115967 1.91671 2.04065 0 4.41117 0Z" fill="black"/>
<path d="M7.01427 13.7497C5.21163 16.8644 6.35751 21.5917 8.35082 24.4579C9.34563 25.8911 10.3533 27.1772 11.7327 27.1772C11.7585 27.1772 11.7848 27.1768 11.8115 27.1754C12.46 27.1497 12.9283 26.9511 13.3811 26.7589C13.8895 26.5429 14.416 26.32 15.2408 26.32C16.0657 26.32 16.5263 26.536 17.0103 26.7442C17.4879 26.9502 17.9793 27.163 18.7061 27.1492C20.26 27.1203 21.2143 25.7325 22.0562 24.5079C22.935 23.2296 23.3757 21.9885 23.524 21.5138L23.53 21.495C23.5586 21.4106 23.518 21.3188 23.437 21.2817C23.437 21.2817 23.4268 21.2771 23.4245 21.2762C23.151 21.1647 20.7501 20.1039 20.7247 17.2134C20.7012 14.8647 22.5255 13.6213 22.8917 13.3956L22.9087 13.3846C22.9483 13.3594 22.976 13.319 22.9856 13.2732C22.9948 13.2268 22.9856 13.1791 22.9585 13.1401C21.6993 11.3051 19.7691 11.0285 18.9921 10.9955C18.8797 10.984 18.7632 10.9785 18.6462 10.9785C17.7334 10.9785 16.8592 11.3216 16.1564 11.5977C15.6714 11.788 15.2528 11.9527 14.964 11.9527C14.6393 11.9527 14.2179 11.7862 13.7306 11.5936C13.078 11.3358 12.3388 11.0436 11.5563 11.0436C11.5374 11.0436 11.5195 11.0436 11.5015 11.0446C9.68184 11.0712 7.96211 12.1077 7.01427 13.7497Z" fill="white"/>
<path d="M18.9934 5.94497C17.8917 5.98946 16.5694 6.66505 15.7796 7.58694C15.1076 8.36115 14.4522 9.65317 14.6249 10.9548C14.636 11.0365 14.7028 11.0988 14.7848 11.1057C14.8594 11.1112 14.9349 11.1144 15.0104 11.1144C16.0877 11.1144 17.2501 10.5205 18.0441 9.56465C18.8796 8.55561 19.3019 7.26038 19.1744 6.09999C19.1642 6.00872 19.0836 5.9413 18.9934 5.94497Z" fill="white"/>
<path d="M31.6724 5.85544H33.7619C34.31 5.85544 34.7968 5.96827 35.2215 6.19347C35.6466 6.41866 35.9772 6.73055 36.2135 7.12866C36.4498 7.52677 36.5681 7.979 36.5681 8.48444C36.5681 8.98988 36.4498 9.4421 36.2135 9.84021C35.9772 10.2383 35.6466 10.5502 35.2215 10.7754C34.7964 11.0006 34.31 11.1134 33.7619 11.1134H31.6724V5.85498V5.85544ZM33.732 10.7685C34.2197 10.7685 34.6499 10.6722 35.022 10.4791C35.3942 10.2865 35.6806 10.0173 35.8819 9.67143C36.0832 9.32607 36.1836 8.93025 36.1836 8.48444C36.1836 8.03863 36.0827 7.64327 35.8819 7.29745C35.6806 6.95208 35.3942 6.68285 35.022 6.48976C34.6499 6.29713 34.2197 6.20035 33.732 6.20035H32.0574V10.7681H33.732V10.7685Z" fill="white"/>
<path d="M38.3144 10.8887C38.0151 10.7185 37.7802 10.4818 37.6093 10.1787C37.4384 9.8755 37.3528 9.5338 37.3528 9.15312C37.3528 8.77244 37.4384 8.43074 37.6093 8.12758C37.7802 7.82441 38.0155 7.5882 38.3144 7.41758C38.6138 7.24742 38.9491 7.16211 39.3217 7.16211C39.6943 7.16211 40.0296 7.24742 40.3289 7.41758C40.6283 7.58774 40.8632 7.82441 41.0341 8.12758C41.2049 8.43074 41.2906 8.77244 41.2906 9.15312C41.2906 9.5338 41.2049 9.8755 41.0341 10.1787C40.8632 10.4818 40.6278 10.7185 40.3289 10.8887C40.0296 11.0588 39.6938 11.1441 39.3217 11.1441C38.9496 11.1441 38.6138 11.0588 38.3144 10.8887ZM40.1323 10.5956C40.3713 10.4552 40.5597 10.2603 40.6978 10.0094C40.836 9.759 40.9051 9.47372 40.9051 9.15312C40.9051 8.83252 40.836 8.54724 40.6978 8.29682C40.5597 8.04639 40.3708 7.85101 40.1323 7.71066C39.8932 7.57031 39.6229 7.50014 39.3212 7.50014C39.0196 7.50014 38.7492 7.57031 38.5102 7.71066C38.2711 7.85101 38.0828 8.04639 37.9446 8.29682C37.8064 8.54724 37.7374 8.83298 37.7374 9.15312C37.7374 9.47326 37.8064 9.759 37.9446 10.0094C38.0828 10.2599 38.2716 10.4552 38.5102 10.5956C38.7492 10.7359 39.0196 10.8061 39.3212 10.8061C39.6229 10.8061 39.8932 10.7359 40.1323 10.5956Z" fill="white"/>
<path d="M47.9744 7.19238L46.4808 11.1139H46.1262L44.7984 7.71066L43.4632 11.1139H43.1164L41.6228 7.19238H41.9848L43.2974 10.6933L44.6399 7.19238H44.9642L46.2993 10.6855L47.6271 7.19238H47.974H47.9744Z" fill="white"/>
<path d="M51.9423 7.59049C52.2288 7.87578 52.3724 8.28673 52.3724 8.82244V11.1139H51.9952V8.8527C51.9952 8.41194 51.8833 8.07666 51.6595 7.84596C51.4357 7.61572 51.1225 7.5006 50.7204 7.5006C50.2575 7.5006 49.8932 7.63819 49.6266 7.91384C49.3599 8.18949 49.2268 8.56008 49.2268 9.02562V11.1139H48.8496V7.19238H49.2116V8.04135C49.3475 7.76616 49.5497 7.55059 49.8191 7.39511C50.0881 7.24008 50.4063 7.16211 50.7734 7.16211C51.2662 7.16211 51.6558 7.30475 51.9427 7.59049H51.9423Z" fill="white"/>
<path d="M53.926 5.54004H54.3032V11.114H53.926V5.54004Z" fill="white"/>
<path d="M56.4267 10.8887C56.1274 10.7185 55.8925 10.4818 55.7216 10.1787C55.5507 9.8755 55.4651 9.5338 55.4651 9.15312C55.4651 8.77244 55.5507 8.43074 55.7216 8.12758C55.8925 7.82441 56.1278 7.5882 56.4267 7.41758C56.7261 7.24742 57.0614 7.16211 57.434 7.16211C57.8066 7.16211 58.1419 7.24742 58.4412 7.41758C58.7406 7.58774 58.9755 7.82441 59.1468 8.12758C59.3177 8.43074 59.4034 8.77244 59.4034 9.15312C59.4034 9.5338 59.3177 9.8755 59.1468 10.1787C58.9759 10.4818 58.7406 10.7185 58.4412 10.8887C58.1419 11.0588 57.8061 11.1441 57.434 11.1441C57.0619 11.1441 56.7261 11.0588 56.4267 10.8887ZM58.2446 10.5956C58.4831 10.4552 58.672 10.2603 58.8101 10.0094C58.9483 9.759 59.0174 9.47372 59.0174 9.15312C59.0174 8.83252 58.9483 8.54724 58.8101 8.29682C58.672 8.04639 58.4831 7.85101 58.2446 7.71066C58.0055 7.57031 57.7352 7.50014 57.4335 7.50014C57.1319 7.50014 56.8615 7.57031 56.6225 7.71066C56.3834 7.85101 56.1951 8.04639 56.0569 8.29682C55.9187 8.54724 55.8497 8.83298 55.8497 9.15312C55.8497 9.47326 55.9187 9.759 56.0569 10.0094C56.1951 10.2599 56.3839 10.4552 56.6225 10.5956C56.8615 10.7359 57.1319 10.8061 57.4335 10.8061C57.7352 10.8061 58.0055 10.7359 58.2446 10.5956Z" fill="white"/>
<path d="M63.0086 7.53408C63.2702 7.78221 63.401 8.14638 63.401 8.62705V11.1134H63.039V10.4149C62.9133 10.6451 62.7295 10.8245 62.4882 10.952C62.2468 11.0795 61.9576 11.1437 61.6205 11.1437C61.1829 11.1437 60.837 11.0409 60.5833 10.8355C60.329 10.63 60.2024 10.3598 60.2024 10.0241C60.2024 9.68837 60.3194 9.43427 60.5533 9.23155C60.7873 9.02883 61.1608 8.92746 61.6734 8.92746H63.0238V8.61191C63.0238 8.24636 62.9243 7.96842 62.7258 7.77808C62.5273 7.58774 62.2367 7.4928 61.8544 7.4928C61.5928 7.4928 61.3427 7.53775 61.1037 7.6281C60.8647 7.71846 60.6625 7.83862 60.4962 7.9886L60.3079 7.718C60.5041 7.54279 60.7403 7.40612 61.0171 7.30842C61.2935 7.21073 61.5827 7.16211 61.8848 7.16211C62.3726 7.16211 62.7475 7.28594 63.0091 7.53408H63.0086ZM62.507 10.6103C62.7359 10.4598 62.9082 10.242 63.0238 9.95668V9.22054H61.6813C61.2939 9.22054 61.0134 9.29072 60.8403 9.43107C60.6666 9.57142 60.5801 9.76405 60.5801 10.0094C60.5801 10.2548 60.6754 10.4667 60.8665 10.6139C61.0577 10.7616 61.3266 10.8355 61.6739 10.8355C62.0009 10.8355 62.2786 10.7602 62.5075 10.6103H62.507Z" fill="white"/>
<path d="M68.4627 5.54004V11.114H68.0928V10.1899C67.9367 10.4953 67.7179 10.7306 67.4365 10.8962C67.1547 11.0613 66.8355 11.1443 66.4786 11.1443C66.1216 11.1443 65.7794 11.059 65.4828 10.8888C65.1862 10.7187 64.9536 10.4834 64.7851 10.1825C64.6165 9.88211 64.5322 9.53903 64.5322 9.15331C64.5322 8.76758 64.6165 8.42359 64.7851 8.12042C64.9536 7.81725 65.1862 7.58196 65.4828 7.41409C65.7794 7.24623 66.1115 7.16229 66.4786 7.16229C66.8456 7.16229 67.1464 7.24485 67.4255 7.41043C67.7046 7.57554 67.9247 7.80624 68.0855 8.10161V5.54004H68.4627ZM67.3122 10.5958C67.5507 10.4554 67.7396 10.2605 67.8777 10.0096C68.0159 9.75919 68.085 9.4739 68.085 9.15331C68.085 8.83271 68.0159 8.54742 67.8777 8.297C67.7396 8.04658 67.5507 7.85119 67.3122 7.71085C67.0731 7.5705 66.8028 7.50032 66.5011 7.50032C66.1995 7.50032 65.9291 7.5705 65.6901 7.71085C65.451 7.85119 65.2627 8.04658 65.1245 8.297C64.9863 8.54742 64.9173 8.83317 64.9173 9.15331C64.9173 9.47345 64.9863 9.75919 65.1245 10.0096C65.2627 10.26 65.4515 10.4554 65.6901 10.5958C65.9291 10.7361 66.1995 10.8063 66.5011 10.8063C66.8028 10.8063 67.0731 10.7361 67.3122 10.5958Z" fill="white"/>
<path d="M72.5249 10.8887C72.2255 10.7185 71.9906 10.4818 71.8198 10.1787C71.6489 9.8755 71.5632 9.5338 71.5632 9.15312C71.5632 8.77244 71.6489 8.43074 71.8198 8.12758C71.9906 7.82441 72.226 7.5882 72.5249 7.41758C72.8243 7.24742 73.1595 7.16211 73.5321 7.16211C73.9047 7.16211 74.24 7.24742 74.5394 7.41758C74.8387 7.58774 75.0736 7.82441 75.245 8.12758C75.4158 8.43074 75.5015 8.77244 75.5015 9.15312C75.5015 9.5338 75.4158 9.8755 75.245 10.1787C75.0741 10.4818 74.8387 10.7185 74.5394 10.8887C74.24 11.0588 73.9043 11.1441 73.5321 11.1441C73.16 11.1441 72.8243 11.0588 72.5249 10.8887ZM74.3427 10.5956C74.5813 10.4552 74.7701 10.2603 74.9083 10.0094C75.0465 9.759 75.1155 9.47372 75.1155 9.15312C75.1155 8.83252 75.0465 8.54724 74.9083 8.29682C74.7701 8.04639 74.5813 7.85101 74.3427 7.71066C74.1037 7.57031 73.8333 7.50014 73.5317 7.50014C73.23 7.50014 72.9597 7.57031 72.7206 7.71066C72.4816 7.85101 72.2932 8.04639 72.1551 8.29682C72.0169 8.54724 71.9478 8.83298 71.9478 9.15312C71.9478 9.47326 72.0169 9.759 72.1551 10.0094C72.2932 10.2599 72.4821 10.4552 72.7206 10.5956C72.9597 10.7359 73.23 10.8061 73.5317 10.8061C73.8333 10.8061 74.1037 10.7359 74.3427 10.5956Z" fill="white"/>
<path d="M79.7623 7.59049C80.0488 7.87578 80.1925 8.28673 80.1925 8.82244V11.1139H79.8153V8.8527C79.8153 8.41194 79.7034 8.07666 79.4796 7.84596C79.2557 7.61572 78.9425 7.5006 78.5405 7.5006C78.0776 7.5006 77.7133 7.63819 77.4466 7.91384C77.18 8.18949 77.0469 8.56008 77.0469 9.02562V11.1139H76.6697V7.19238H77.0317V8.04135C77.1675 7.76616 77.3697 7.55059 77.6392 7.39511C77.9081 7.24008 78.2264 7.16211 78.5934 7.16211C79.0862 7.16211 79.4759 7.30475 79.7628 7.59049H79.7623Z" fill="white"/>
<path d="M85.639 10.8661C85.5432 10.9564 85.4239 11.0252 85.2807 11.0725C85.1375 11.1202 84.9878 11.144 84.8316 11.144C84.4894 11.144 84.2255 11.05 84.0395 10.8624C83.8534 10.6748 83.7604 10.4129 83.7604 10.0772V7.51563H83.0364V7.19273H83.7604V6.33643H84.1376V7.19273H85.3898V7.51563H84.1376V10.04C84.1376 10.2955 84.1993 10.4895 84.3223 10.6221C84.4452 10.7546 84.6276 10.8211 84.8694 10.8211C85.1112 10.8211 85.3194 10.7487 85.4806 10.6033L85.639 10.8661Z" fill="white"/>
<path d="M89.7804 7.59068C90.0669 7.87596 90.2106 8.28691 90.2106 8.82262V11.114H89.8334V8.85289C89.8334 8.41212 89.7215 8.07685 89.4976 7.84615C89.2738 7.6159 88.9606 7.50078 88.5585 7.50078C88.0957 7.50078 87.7314 7.63838 87.4647 7.91403C87.198 8.18968 87.0649 8.56027 87.0649 9.0258V11.114H86.6877V5.54004H87.0649V8.01172C87.2008 7.74111 87.4016 7.53243 87.6683 7.38428C87.9349 7.2366 88.249 7.16275 88.6111 7.16275C89.1039 7.16275 89.4935 7.3054 89.7804 7.59114V7.59068Z" fill="white"/>
<path d="M95.0987 9.24345H91.7117C91.7218 9.54891 91.7996 9.82089 91.9456 10.0585C92.0916 10.2965 92.2888 10.4804 92.5379 10.6107C92.7871 10.7409 93.0671 10.8061 93.3789 10.8061C93.6354 10.8061 93.8731 10.7598 94.0919 10.6671C94.3106 10.5745 94.493 10.4378 94.639 10.2575L94.8578 10.5052C94.6869 10.7107 94.4718 10.8685 94.213 10.9785C93.9542 11.0886 93.6737 11.1436 93.372 11.1436C92.9796 11.1436 92.63 11.0583 92.3233 10.8882C92.0166 10.718 91.7762 10.4827 91.603 10.1819C91.4294 9.88144 91.3428 9.53836 91.3428 9.15263C91.3428 8.76691 91.4243 8.43026 91.5878 8.12709C91.7513 7.82392 91.9765 7.58771 92.263 7.41709C92.5494 7.24693 92.8714 7.16162 93.2283 7.16162C93.5852 7.16162 93.9058 7.24555 94.19 7.41342C94.4741 7.58129 94.698 7.8152 94.8615 8.11562C95.025 8.41604 95.1065 8.75682 95.1065 9.1375L95.0991 9.24253L95.0987 9.24345ZM92.4808 7.67715C92.2593 7.80007 92.082 7.97252 91.9489 8.19543C91.8158 8.41833 91.7389 8.67013 91.7186 8.95037H94.7362C94.721 8.67013 94.6455 8.41971 94.5101 8.19909C94.3742 7.97894 94.1955 7.80603 93.9744 7.68082C93.7529 7.55561 93.5042 7.49323 93.2274 7.49323C92.9506 7.49323 92.7019 7.55469 92.4808 7.67715Z" fill="white"/>
<path d="M37.2577 22.7394H32.7456L31.8562 24.8189H30.1287L34.1894 15.8325H35.8396L39.9133 24.8189H38.1599L37.2577 22.7394ZM36.7032 21.4299L35.0014 17.5016L33.3125 21.4299H36.7032Z" fill="white"/>
<path d="M46.5203 18.3229C47.049 18.6141 47.4635 19.0246 47.7642 19.5553C48.065 20.086 48.2156 20.6978 48.2156 21.3913C48.2156 22.0848 48.065 22.6989 47.7642 23.2337C47.4635 23.7685 47.0485 24.1817 46.5203 24.4725C45.9915 24.7638 45.3923 24.9091 44.7218 24.9091C43.7937 24.9091 43.0587 24.6009 42.5175 23.985V27.3102H40.906V17.9642H42.4401V18.8627C42.7063 18.5375 43.0352 18.2935 43.4262 18.1307C43.8172 17.9684 44.2492 17.8867 44.7218 17.8867C45.3923 17.8867 45.9915 18.0326 46.5203 18.3234V18.3229ZM46.0044 22.9447C46.3867 22.5512 46.5783 22.0334 46.5783 21.3913C46.5783 20.7492 46.3871 20.2318 46.0044 19.8378C45.6217 19.4443 45.1344 19.2471 44.5412 19.2471C44.1543 19.2471 43.8066 19.3351 43.4971 19.5103C43.1876 19.686 42.9426 19.9364 42.7625 20.2616C42.582 20.5868 42.4917 20.9634 42.4917 21.3913C42.4917 21.8192 42.582 22.1958 42.7625 22.5209C42.9431 22.8461 43.1881 23.0966 43.4971 23.2722C43.8066 23.4479 44.1543 23.5355 44.5412 23.5355C45.1344 23.5355 45.6217 23.3387 46.0044 22.9447Z" fill="white"/>
<path d="M55.3635 18.3229C55.8922 18.6141 56.3067 19.0246 56.6075 19.5553C56.9082 20.086 57.0588 20.6978 57.0588 21.3913C57.0588 22.0848 56.9082 22.6989 56.6075 23.2337C56.3067 23.7685 55.8918 24.1817 55.3635 24.4725C54.8348 24.7638 54.2356 24.9091 53.565 24.9091C52.637 24.9091 51.9019 24.6009 51.3608 23.985V27.3102H49.7493V17.9642H51.2834V18.8627C51.5496 18.5375 51.8784 18.2935 52.2695 18.1307C52.6605 17.9684 53.0925 17.8867 53.565 17.8867C54.2356 17.8867 54.8348 18.0326 55.3635 18.3234V18.3229ZM54.8477 22.9447C55.2299 22.5512 55.4215 22.0334 55.4215 21.3913C55.4215 20.7492 55.2304 20.2318 54.8477 19.8378C54.465 19.4443 53.9777 19.2471 53.3845 19.2471C52.9976 19.2471 52.6499 19.3351 52.3404 19.5103C52.0309 19.686 51.7859 19.9364 51.6058 20.2616C51.4252 20.5868 51.335 20.9634 51.335 21.3913C51.335 21.8192 51.4252 22.1958 51.6058 22.5209C51.7863 22.8461 52.0314 23.0966 52.3404 23.2722C52.6499 23.4479 52.9976 23.5355 53.3845 23.5355C53.9777 23.5355 54.465 23.3387 54.8477 22.9447Z" fill="white"/>
<path d="M63.0848 24.6519C62.4358 24.4552 61.9223 24.1942 61.5442 23.869L62.1245 22.5724C62.4939 22.8636 62.9475 23.1008 63.4845 23.2847C64.0216 23.4691 64.5609 23.5608 65.1025 23.5608C65.7726 23.5608 66.2732 23.4539 66.6044 23.2397C66.9351 23.026 67.1009 22.7435 67.1009 22.3926C67.1009 22.1358 67.0083 21.9239 66.8236 21.7569C66.6389 21.59 66.4045 21.4597 66.1213 21.3652C65.8375 21.2712 65.4511 21.1643 64.9611 21.0442C64.2735 20.8818 63.7171 20.719 63.2916 20.5562C62.866 20.3938 62.5008 20.1388 62.1959 19.7925C61.8905 19.4458 61.7381 18.9775 61.7381 18.3867C61.7381 17.8905 61.8735 17.4387 62.1443 17.0323C62.4151 16.626 62.8232 16.3026 63.3689 16.0632C63.9147 15.8238 64.5825 15.7036 65.3738 15.7036C65.9237 15.7036 66.4653 15.7724 66.9982 15.9091C67.531 16.0462 67.9907 16.243 68.3775 16.4998L67.8488 17.7964C67.4532 17.5653 67.041 17.3901 66.6113 17.2699C66.1816 17.1502 65.7648 17.0901 65.3609 17.0901C64.699 17.0901 64.2072 17.2016 63.8848 17.424C63.5624 17.6465 63.4012 17.9418 63.4012 18.3097C63.4012 18.5665 63.4933 18.7761 63.6784 18.9385C63.8631 19.1013 64.0975 19.2297 64.3808 19.3238C64.6645 19.4182 65.0509 19.5251 65.5409 19.6448C66.2115 19.7989 66.7614 19.9595 67.1911 20.1264C67.6208 20.2934 67.9884 20.5479 68.2933 20.8901C68.5982 21.2327 68.7511 21.6945 68.7511 22.2766C68.7511 22.7728 68.6157 23.2223 68.3448 23.6245C68.074 24.0268 67.6637 24.3478 67.1138 24.5873C66.5638 24.8267 65.8933 24.9468 65.103 24.9468C64.4066 24.9468 63.7342 24.8482 63.0852 24.6515L63.0848 24.6519Z" fill="white"/>
<path d="M74.3968 24.4462C74.2075 24.6003 73.9777 24.7159 73.7073 24.7929C73.4365 24.87 73.151 24.9085 72.8502 24.9085C72.094 24.9085 71.5095 24.7118 71.0969 24.3178C70.6842 23.9242 70.4779 23.3509 70.4779 22.5974V19.2978H69.3435V18.014H70.4779V16.4478H72.0894V18.014H73.933V19.2978H72.0894V22.5588C72.0894 22.8927 72.1709 23.1473 72.3344 23.3225C72.4974 23.4982 72.7342 23.5858 73.0432 23.5858C73.4043 23.5858 73.705 23.4917 73.9454 23.3032L74.3968 24.4457V24.4462Z" fill="white"/>
<path d="M76.7047 24.4591C76.146 24.1596 75.7099 23.7423 75.3962 23.2075C75.0826 22.6727 74.9255 22.0673 74.9255 21.3908C74.9255 20.7142 75.0821 20.1116 75.3962 19.5805C75.7099 19.0498 76.146 18.6347 76.7047 18.3352C77.2633 18.0357 77.8906 17.8857 78.587 17.8857C79.2834 17.8857 79.9231 18.0357 80.4822 18.3352C81.0409 18.6347 81.477 19.0498 81.7907 19.5805C82.1043 20.1111 82.2614 20.7147 82.2614 21.3908C82.2614 22.0668 82.1043 22.6727 81.7907 23.2075C81.477 23.7423 81.0409 24.1596 80.4822 24.4591C79.9235 24.7586 79.2917 24.9086 78.587 24.9086C77.8823 24.9086 77.2633 24.7591 76.7047 24.4591ZM80.0567 22.9442C80.4435 22.5507 80.637 22.0329 80.637 21.3908C80.637 20.7486 80.4435 20.2313 80.0567 19.8373C79.6698 19.4438 79.1802 19.2466 78.587 19.2466C77.9938 19.2466 77.5061 19.4433 77.1238 19.8373C76.7411 20.2308 76.5499 20.7486 76.5499 21.3908C76.5499 22.0329 76.7411 22.5507 77.1238 22.9442C77.5061 23.3377 77.9938 23.535 78.587 23.535C79.1802 23.535 79.6698 23.3382 80.0567 22.9442Z" fill="white"/>
<path d="M87.791 17.8862V19.414C87.6533 19.3883 87.5289 19.3755 87.417 19.3755C86.7897 19.3755 86.2997 19.5576 85.9474 19.9213C85.595 20.285 85.4186 20.8092 85.4186 21.494V24.8192H83.8071V17.9637H85.3413V18.965C85.8055 18.2463 86.6216 17.8867 87.7905 17.8867L87.791 17.8862Z" fill="white"/>
<path d="M95.5391 21.9045H90.1376C90.232 22.4094 90.4793 22.8094 90.8786 23.1048C91.2784 23.4001 91.7744 23.5478 92.3676 23.5478C93.1239 23.5478 93.747 23.2997 94.2371 22.8034L95.1006 23.7918C94.7911 24.1601 94.4001 24.4381 93.9276 24.6261C93.455 24.8146 92.9222 24.9086 92.329 24.9086C91.5727 24.9086 90.9063 24.7591 90.3306 24.4591C89.7549 24.1596 89.31 23.7423 88.9963 23.2075C88.6827 22.6727 88.5256 22.0673 88.5256 21.3908C88.5256 20.7142 88.6781 20.1221 88.9834 19.5869C89.2883 19.0521 89.7116 18.6347 90.2532 18.3352C90.7948 18.0357 91.4046 17.8857 92.0839 17.8857C92.7633 17.8857 93.3537 18.0334 93.8824 18.3288C94.4112 18.6242 94.8234 19.0393 95.12 19.574C95.4166 20.1088 95.5649 20.7276 95.5649 21.4293C95.5649 21.5407 95.5561 21.699 95.5391 21.9045ZM90.7755 19.6259C90.4185 19.93 90.2021 20.334 90.1247 20.839H94.0307C93.9616 20.3427 93.7512 19.9405 93.3988 19.6323C93.0465 19.3241 92.6081 19.17 92.0839 19.17C91.5598 19.17 91.132 19.3218 90.7755 19.6259Z" fill="white"/>
</svg>
