<svg width="112" height="34" viewBox="0 0 112 34" fill="none" xmlns="http://www.w3.org/2000/svg">
<path d="M4.2952 0H106.821C109.191 0 111.116 1.91671 111.116 4.27739V29.3739C111.116 31.7346 109.191 33.6513 106.821 33.6513H4.2952C1.92469 33.6513 0 31.7346 0 29.3739V4.27739C0 1.91671 1.92469 0 4.2952 0Z" fill="black"/>
<path d="M34.555 9.63385H31.4922L30.8207 11.1139H30.4058L32.8348 5.85547H33.2193L35.6483 11.1139H35.2334L34.5545 9.63385H34.555ZM34.4117 9.31096L33.0236 6.27605L31.6433 9.31096H34.4117Z" fill="white"/>
<path d="M39.4512 7.19238L37.6707 11.1139H37.2861L35.5134 7.19238H35.9132L37.4823 10.7006L39.0667 7.19238H39.4512Z" fill="white"/>
<path d="M42.6043 7.53411C42.8659 7.78224 42.9967 8.14641 42.9967 8.62708V11.1139H42.6347V10.4154C42.509 10.6456 42.3252 10.8249 42.0839 10.9524C41.8425 11.0799 41.5533 11.1442 41.2162 11.1442C40.7786 11.1442 40.4328 11.0414 40.179 10.8359C39.9248 10.6305 39.7981 10.3603 39.7981 10.0246C39.7981 9.68886 39.9151 9.43476 40.149 9.23204C40.383 9.02931 40.7565 8.92795 41.2691 8.92795H42.6195V8.6124C42.6195 8.24685 42.52 7.96891 42.3215 7.77857C42.123 7.58823 41.8324 7.49329 41.4501 7.49329C41.1885 7.49329 40.9384 7.53823 40.6994 7.62859C40.4604 7.71894 40.2582 7.83911 40.0919 7.98909L39.9036 7.71848C40.0998 7.54328 40.336 7.4066 40.6128 7.30891C40.8892 7.21121 41.1784 7.1626 41.4805 7.1626C41.9683 7.1626 42.3432 7.28643 42.6048 7.53456L42.6043 7.53411ZM42.1027 10.6103C42.3316 10.4599 42.5039 10.242 42.6195 9.95671V9.22057H41.2765C40.8892 9.22057 40.6087 9.29075 40.4355 9.43109C40.2619 9.57144 40.1753 9.76408 40.1753 10.0095C40.1753 10.2548 40.2706 10.4667 40.4618 10.6144C40.6529 10.7621 40.9219 10.8359 41.2691 10.8359C41.5961 10.8359 41.8738 10.7607 42.1027 10.6107V10.6103Z" fill="white"/>
<path d="M44.5207 6.1518C44.4603 6.09447 44.4299 6.02292 44.4299 5.93761C44.4299 5.8523 44.4603 5.77983 44.5207 5.71975C44.581 5.65967 44.6538 5.62939 44.7394 5.62939C44.8251 5.62939 44.8979 5.65829 44.9582 5.71562C45.0185 5.77341 45.0489 5.8445 45.0489 5.92981C45.0489 6.01512 45.0185 6.08759 44.9582 6.14767C44.8979 6.20776 44.8251 6.23803 44.7394 6.23803C44.6538 6.23803 44.581 6.20913 44.5207 6.1518ZM44.5506 7.19248H44.9278V11.114H44.5506V7.19248Z" fill="white"/>
<path d="M46.5198 5.53955H46.897V11.1136H46.5198V5.53955Z" fill="white"/>
<path d="M50.94 7.53411C51.2016 7.78224 51.3324 8.14641 51.3324 8.62708V11.1139H50.9704V10.4154C50.8447 10.6456 50.6609 10.8249 50.4196 10.9524C50.1782 11.0799 49.889 11.1442 49.5519 11.1442C49.1143 11.1442 48.7684 11.0414 48.5147 10.8359C48.2604 10.6305 48.1338 10.3603 48.1338 10.0246C48.1338 9.68886 48.2508 9.43476 48.4847 9.23204C48.7187 9.02931 49.0922 8.92795 49.6048 8.92795H50.9552V8.6124C50.9552 8.24685 50.8557 7.96891 50.6572 7.77857C50.4582 7.58823 50.1681 7.49329 49.7858 7.49329C49.5242 7.49329 49.2741 7.53823 49.0351 7.62859C48.7961 7.71894 48.5939 7.83911 48.4281 7.98909L48.2397 7.71848C48.4359 7.54328 48.6722 7.4066 48.949 7.30891C49.2253 7.21121 49.5146 7.1626 49.8167 7.1626C50.3044 7.1626 50.6793 7.28643 50.9409 7.53456L50.94 7.53411ZM50.4384 10.6103C50.6673 10.4599 50.8396 10.242 50.9552 9.95671V9.22057H49.6122C49.2249 9.22057 48.9444 9.29075 48.7712 9.43109C48.5976 9.57144 48.511 9.76408 48.511 10.0095C48.511 10.2548 48.6063 10.4667 48.7975 10.6144C48.9886 10.7621 49.2576 10.8359 49.6048 10.8359C49.9318 10.8359 50.2095 10.7607 50.4384 10.6107V10.6103Z" fill="white"/>
<path d="M55.8585 7.41406C56.1551 7.58193 56.3877 7.81722 56.5562 8.12039C56.7248 8.42356 56.8091 8.76755 56.8091 9.15328C56.8091 9.539 56.7248 9.88207 56.5562 10.1825C56.3877 10.4829 56.1551 10.7187 55.8585 10.8888C55.5619 11.059 55.2298 11.1443 54.8627 11.1443C54.4957 11.1443 54.1926 11.0604 53.9085 10.8925C53.6243 10.7246 53.4041 10.4907 53.2485 10.1903V11.1145H52.8865V5.53955H53.2637V8.08645C53.4193 7.79612 53.6381 7.56955 53.92 7.40673C54.2014 7.2439 54.5159 7.16272 54.8627 7.16272C55.2298 7.16272 55.5619 7.24666 55.8585 7.41452V7.41406ZM55.6549 10.5957C55.8962 10.4554 56.086 10.2605 56.2246 10.0096C56.3628 9.75916 56.4319 9.47387 56.4319 9.15328C56.4319 8.83268 56.3628 8.54739 56.2246 8.29697C56.0865 8.04655 55.8967 7.85116 55.6549 7.71081C55.4136 7.57046 55.1418 7.50029 54.8402 7.50029C54.5385 7.50029 54.2682 7.57046 54.0291 7.71081C53.7901 7.85116 53.6017 8.04655 53.4636 8.29697C53.3254 8.54739 53.2563 8.83314 53.2563 9.15328C53.2563 9.47341 53.3254 9.75916 53.4636 10.0096C53.6017 10.26 53.7906 10.4554 54.0291 10.5957C54.2682 10.7361 54.5385 10.8063 54.8402 10.8063C55.1418 10.8063 55.4136 10.7361 55.6549 10.5957Z" fill="white"/>
<path d="M57.978 5.53955H58.3552V11.1136H57.978V5.53955Z" fill="white"/>
<path d="M63.273 9.24299H59.886C59.8961 9.54845 59.974 9.82043 60.12 10.058C60.266 10.2961 60.4631 10.48 60.7122 10.6102C60.9614 10.7405 61.2414 10.8056 61.5532 10.8056C61.8098 10.8056 62.0474 10.7593 62.2662 10.6666C62.4849 10.574 62.6673 10.4373 62.8133 10.2571L63.0321 10.5052C62.8612 10.7107 62.6461 10.8685 62.3873 10.9785C62.1285 11.0886 61.848 11.1436 61.5463 11.1436C61.1539 11.1436 60.8044 11.0583 60.4976 10.8882C60.1909 10.718 59.9505 10.4823 59.7773 10.1818C59.6037 9.88143 59.5171 9.53836 59.5171 9.15263C59.5171 8.76691 59.5986 8.43025 59.7621 8.12709C59.9256 7.82392 60.1508 7.58725 60.4373 7.41709C60.7238 7.24693 61.0457 7.16162 61.4026 7.16162C61.7596 7.16162 62.0801 7.24555 62.3643 7.41342C62.6484 7.58129 62.8723 7.8152 63.0358 8.11562C63.1993 8.41604 63.2808 8.75682 63.2808 9.1375L63.2734 9.24253L63.273 9.24299ZM60.6551 7.67669C60.4336 7.79961 60.2563 7.97206 60.1232 8.19497C59.9901 8.41787 59.9132 8.66967 59.8929 8.94991H62.9105C62.8953 8.66967 62.8198 8.41925 62.6844 8.19863C62.5485 7.97848 62.3698 7.80557 62.1487 7.68036C61.9272 7.55515 61.6785 7.49277 61.4017 7.49277C61.1249 7.49277 60.8762 7.55423 60.6551 7.67669Z" fill="white"/>
<path d="M66.9206 10.8882C66.6213 10.718 66.3864 10.4813 66.2155 10.1782C66.0446 9.87501 65.959 9.53331 65.959 9.15263C65.959 8.77195 66.0446 8.43025 66.2155 8.12709C66.3864 7.82392 66.6217 7.58725 66.9206 7.41709C67.22 7.24693 67.5553 7.16162 67.9279 7.16162C68.3005 7.16162 68.6358 7.24693 68.9351 7.41709C69.2345 7.58725 69.4694 7.82392 69.6407 8.12709C69.8116 8.43025 69.8972 8.77195 69.8972 9.15263C69.8972 9.53331 69.8116 9.87501 69.6407 10.1782C69.4698 10.4813 69.2345 10.718 68.9351 10.8882C68.6358 11.0583 68.3 11.1436 67.9279 11.1436C67.5558 11.1436 67.22 11.0583 66.9206 10.8882ZM68.7385 10.5951C68.977 10.4547 69.1659 10.2598 69.304 10.0089C69.4422 9.75851 69.5113 9.47323 69.5113 9.15263C69.5113 8.83203 69.4422 8.54675 69.304 8.29633C69.1659 8.0459 68.977 7.85052 68.7385 7.71017C68.4994 7.56982 68.2291 7.49965 67.9274 7.49965C67.6258 7.49965 67.3554 7.56982 67.1164 7.71017C66.8773 7.85052 66.689 8.0459 66.5508 8.29633C66.4126 8.54675 66.3436 8.83249 66.3436 9.15263C66.3436 9.47277 66.4126 9.75851 66.5508 10.0089C66.689 10.2594 66.8778 10.4547 67.1164 10.5951C67.3554 10.7354 67.6258 10.8056 67.9274 10.8056C68.2291 10.8056 68.4994 10.7354 68.7385 10.5951Z" fill="white"/>
<path d="M74.1591 7.59049C74.4455 7.87577 74.5892 8.28673 74.5892 8.82243V11.1139H74.212V8.8527C74.212 8.41194 74.1001 8.07666 73.8763 7.84596C73.6525 7.61572 73.3393 7.50059 72.9372 7.50059C72.4743 7.50059 72.11 7.63819 71.8434 7.91384C71.5767 8.18949 71.4436 8.56008 71.4436 9.02561V11.1139H71.0664V7.19238H71.4284V8.04135C71.5643 7.76615 71.7665 7.55059 72.0359 7.39511C72.3049 7.24008 72.6231 7.16211 72.9902 7.16211C73.483 7.16211 73.8726 7.30475 74.1595 7.59049H74.1591Z" fill="white"/>
<path d="M80.035 10.8656C79.9392 10.9559 79.8199 11.0247 79.6767 11.072C79.5335 11.1197 79.3838 11.1435 79.2276 11.1435C78.8854 11.1435 78.6215 11.0495 78.4355 10.8619C78.2494 10.6739 78.1564 10.4124 78.1564 10.0767V7.51513H77.4324V7.19224H78.1564V6.33594H78.5336V7.19224H79.7858V7.51513H78.5336V10.0391C78.5336 10.2946 78.5953 10.4886 78.7183 10.6211C78.8412 10.7537 79.0236 10.8202 79.2654 10.8202C79.5072 10.8202 79.7154 10.7477 79.8766 10.6023L80.035 10.8651V10.8656Z" fill="white"/>
<path d="M84.1764 7.59065C84.4629 7.87593 84.6066 8.28688 84.6066 8.82259V11.114H84.2294V8.85286C84.2294 8.41209 84.1175 8.07682 83.8936 7.84612C83.6698 7.61587 83.3566 7.50075 82.9545 7.50075C82.4917 7.50075 82.1274 7.63835 81.8607 7.914C81.594 8.18965 81.4609 8.56024 81.4609 9.02577V11.114H81.0837V5.53955H81.4609V8.01123C81.5968 7.74062 81.7976 7.53194 82.0643 7.38379C82.3309 7.23611 82.645 7.16226 83.007 7.16226C83.4998 7.16226 83.8895 7.3049 84.1764 7.59065Z" fill="white"/>
<path d="M89.4944 9.24299H86.1074C86.1176 9.54845 86.1954 9.82043 86.3414 10.058C86.4874 10.2961 86.6845 10.48 86.9337 10.6102C87.1829 10.7405 87.4629 10.8056 87.7747 10.8056C88.0312 10.8056 88.2689 10.7593 88.4876 10.6666C88.7064 10.574 88.8888 10.4373 89.0348 10.2571L89.2535 10.5052C89.0827 10.7107 88.8676 10.8685 88.6087 10.9785C88.3499 11.0886 88.0694 11.1436 87.7678 11.1436C87.3754 11.1436 87.0258 11.0583 86.7191 10.8882C86.4123 10.718 86.1719 10.4823 85.9987 10.1818C85.8251 9.88143 85.7385 9.53836 85.7385 9.15263C85.7385 8.76691 85.82 8.43025 85.9835 8.12709C86.147 7.82392 86.3723 7.58725 86.6587 7.41709C86.9452 7.24693 87.2671 7.16162 87.6241 7.16162C87.981 7.16162 88.3016 7.24555 88.5857 7.41342C88.8699 7.58129 89.0937 7.8152 89.2572 8.11562C89.4207 8.41604 89.5022 8.75682 89.5022 9.1375L89.4949 9.24253L89.4944 9.24299ZM86.8766 7.67669C86.655 7.79961 86.4777 7.97206 86.3446 8.19497C86.2115 8.41787 86.1346 8.66967 86.1143 8.94991H89.1319C89.1167 8.66967 89.0412 8.41925 88.9058 8.19863C88.7699 7.97848 88.5912 7.80557 88.3702 7.68036C88.1486 7.55515 87.8999 7.49277 87.6231 7.49277C87.3463 7.49277 87.0976 7.55423 86.8766 7.67669Z" fill="white"/>
<path d="M36.4153 20.3275H37.9651V23.8279C37.5115 24.1875 36.9823 24.4636 36.3776 24.6558C35.7728 24.848 35.1511 24.9443 34.5127 24.9443C33.6137 24.9443 32.8036 24.7498 32.0814 24.3609C31.3588 23.9719 30.7919 23.4344 30.3806 22.7487C29.9688 22.063 29.7634 21.2893 29.7634 20.4275C29.7634 19.5656 29.9693 18.7924 30.3806 18.1062C30.7919 17.4205 31.3611 16.883 32.0879 16.4941C32.8142 16.1051 33.6312 15.9106 34.5385 15.9106C35.2777 15.9106 35.9497 16.0322 36.5544 16.2744C37.1591 16.517 37.6671 16.8724 38.0789 17.3407L37.0458 18.3443C36.3739 17.6751 35.5633 17.3407 34.6145 17.3407C33.9928 17.3407 33.4406 17.4705 32.9579 17.7297C32.4748 17.9888 32.0966 18.353 31.824 18.8213C31.5509 19.29 31.4145 19.8248 31.4145 20.427C31.4145 21.0292 31.5509 21.5397 31.824 22.008C32.0966 22.4767 32.4748 22.8446 32.9579 23.112C33.4406 23.3798 33.9886 23.5133 34.6021 23.5133C35.2906 23.5133 35.8953 23.3628 36.4162 23.0615V20.3266L36.4153 20.3275Z" fill="white"/>
<path d="M41.1522 24.4679C40.606 24.1752 40.1799 23.7675 39.8732 23.2446C39.5665 22.7222 39.4136 22.1301 39.4136 21.4692C39.4136 20.8083 39.5669 20.2189 39.8732 19.7002C40.1795 19.1814 40.606 18.776 41.1522 18.4834C41.698 18.1907 42.3114 18.0444 42.9917 18.0444C43.6719 18.0444 44.2974 18.1907 44.8436 18.4834C45.3894 18.7764 45.8158 19.1819 46.1226 19.7002C46.4288 20.2189 46.5822 20.8087 46.5822 21.4692C46.5822 22.1297 46.4288 22.7218 46.1226 23.2446C45.8158 23.7675 45.3898 24.1752 44.8436 24.4679C44.2974 24.7609 43.6802 24.9068 42.9917 24.9068C42.3031 24.9068 41.698 24.7605 41.1522 24.4679ZM44.4277 22.9873C44.8058 22.6025 44.9947 22.0966 44.9947 21.4692C44.9947 20.8418 44.8058 20.3359 44.4277 19.9511C44.0496 19.5662 43.5711 19.3741 42.9917 19.3741C42.4123 19.3741 41.9351 19.5667 41.5616 19.9511C41.1877 20.3359 41.0011 20.8418 41.0011 21.4692C41.0011 22.0966 41.1881 22.6025 41.5616 22.9873C41.9351 23.3721 42.4118 23.5643 42.9917 23.5643C43.5715 23.5643 44.05 23.3721 44.4277 22.9873Z" fill="white"/>
<path d="M49.2782 24.4679C48.7319 24.1752 48.3059 23.7675 47.9992 23.2446C47.6925 22.7222 47.5396 22.1301 47.5396 21.4692C47.5396 20.8083 47.6929 20.2189 47.9992 19.7002C48.3055 19.1814 48.7319 18.776 49.2782 18.4834C49.8239 18.1907 50.4374 18.0444 51.1177 18.0444C51.7979 18.0444 52.4233 18.1907 52.9696 18.4834C53.5153 18.7764 53.9418 19.1819 54.2486 19.7002C54.5548 20.2189 54.7082 20.8087 54.7082 21.4692C54.7082 22.1297 54.5548 22.7218 54.2486 23.2446C53.9418 23.7675 53.5158 24.1752 52.9696 24.4679C52.4233 24.7609 51.8062 24.9068 51.1177 24.9068C50.4291 24.9068 49.8239 24.7605 49.2782 24.4679ZM52.5537 22.9873C52.9318 22.6025 53.1206 22.0966 53.1206 21.4692C53.1206 20.8418 52.9318 20.3359 52.5537 19.9511C52.1756 19.5662 51.697 19.3741 51.1177 19.3741C50.5383 19.3741 50.0611 19.5667 49.6876 19.9511C49.3136 20.3359 49.1271 20.8418 49.1271 21.4692C49.1271 22.0966 49.3141 22.6025 49.6876 22.9873C50.0611 23.3721 50.5378 23.5643 51.1177 23.5643C51.6975 23.5643 52.176 23.3721 52.5537 22.9873Z" fill="white"/>
<path d="M62.8973 18.1192V23.8028C62.8973 26.1617 61.6878 27.3409 59.269 27.3409C58.6223 27.3409 58.0089 27.2592 57.4295 27.0964C56.8501 26.9331 56.3711 26.6969 55.993 26.3873L56.6986 25.2081C56.9924 25.4508 57.3641 25.6452 57.8136 25.7915C58.2626 25.9378 58.7186 26.0112 59.1805 26.0112C59.9193 26.0112 60.4614 25.8438 60.8059 25.5095C61.1504 25.1746 61.3221 24.6646 61.3221 23.9789V23.6276C61.0532 23.9207 60.7257 24.1422 60.3393 24.2927C59.9529 24.4431 59.5287 24.5183 59.0668 24.5183C58.4284 24.5183 57.8509 24.3826 57.3346 24.1106C56.8183 23.8391 56.4107 23.4561 56.1127 22.9626C55.8147 22.4691 55.6655 21.9045 55.6655 21.2688C55.6655 20.6331 55.8147 20.0708 56.1127 19.5814C56.4107 19.092 56.8183 18.7136 57.3346 18.4458C57.8514 18.1784 58.4284 18.0444 59.0668 18.0444C59.5536 18.0444 59.9971 18.1242 60.396 18.2829C60.7948 18.4421 61.1287 18.6843 61.3977 19.0108V18.1201H62.8968L62.8973 18.1192ZM60.7745 22.6548C61.1568 22.2994 61.3479 21.8375 61.3479 21.2683C61.3479 20.6991 61.1568 20.2519 60.7745 19.9006C60.3923 19.5493 59.9032 19.3736 59.3067 19.3736C58.7103 19.3736 58.2083 19.5493 57.8265 19.9006C57.4442 20.2519 57.2531 20.7078 57.2531 21.2683C57.2531 21.8288 57.4442 22.2994 57.8265 22.6548C58.2083 23.0103 58.702 23.1882 59.3067 23.1882C59.9114 23.1882 60.3923 23.0107 60.7745 22.6548Z" fill="white"/>
<path d="M64.9631 15.5093H66.5378V24.8186H64.9631V15.5093Z" fill="white"/>
<path d="M74.9037 21.971H69.6247C69.7168 22.4645 69.9586 22.8557 70.3492 23.1442C70.7397 23.4327 71.2247 23.5772 71.8041 23.5772C72.5433 23.5772 73.1521 23.3345 73.6307 22.8493L74.4749 23.8152C74.1728 24.1748 73.79 24.4468 73.3285 24.6307C72.8666 24.8146 72.3457 24.9068 71.7663 24.9068C71.0271 24.9068 70.3763 24.7605 69.8135 24.4679C69.2507 24.1752 68.816 23.7675 68.5097 23.2446C68.203 22.7222 68.05 22.1301 68.05 21.4692C68.05 20.8083 68.1993 20.2295 68.4973 19.7066C68.7952 19.1837 69.2093 18.776 69.7385 18.4834C70.2676 18.1907 70.8641 18.0444 71.5273 18.0444C72.1905 18.0444 72.768 18.1889 73.2848 18.4774C73.8011 18.7659 74.2045 19.1718 74.4942 19.6942C74.7839 20.2171 74.929 20.8216 74.929 21.5073C74.929 21.616 74.9207 21.7705 74.9037 21.9714V21.971ZM70.2483 19.7442C69.8997 20.0414 69.6878 20.4363 69.6123 20.9298H73.4299C73.3626 20.445 73.1568 20.0515 72.8127 19.7506C72.4682 19.4497 72.0399 19.2988 71.5278 19.2988C71.0156 19.2988 70.5974 19.4475 70.2488 19.7442H70.2483Z" fill="white"/>
<path d="M85.6939 16.4127C86.2609 16.6636 86.6956 17.0232 86.9978 17.4915C87.3003 17.9602 87.4514 18.5161 87.4514 19.16C87.4514 19.804 87.3003 20.3498 86.9978 20.8227C86.6956 21.2951 86.2609 21.6569 85.6939 21.9078C85.127 22.1587 84.461 22.2844 83.6969 22.2844H81.7064V24.8189H80.0686V16.0366H83.6969C84.461 16.0366 85.127 16.1623 85.6939 16.4132V16.4127ZM85.2467 20.4525C85.6161 20.1512 85.8012 19.7205 85.8012 19.16C85.8012 18.5996 85.6165 18.1689 85.2467 17.8676C84.8769 17.5662 84.3352 17.4158 83.6214 17.4158H81.7064V20.9038H83.6214C84.3352 20.9038 84.8769 20.7534 85.2467 20.4521V20.4525Z" fill="white"/>
<path d="M89.0642 15.5093H90.6389V24.8186H89.0642V15.5093Z" fill="white"/>
<path d="M97.5488 18.7531C98.0738 19.2259 98.3363 19.9387 98.3363 20.8922V24.8192H96.8497V24.0037C96.6562 24.2968 96.3813 24.5201 96.0243 24.6747C95.6674 24.8293 95.2368 24.9068 94.7329 24.9068C94.2291 24.9068 93.7878 24.821 93.4102 24.6495C93.0321 24.478 92.7405 24.2399 92.5347 23.9345C92.3288 23.6294 92.2261 23.2841 92.2261 22.8993C92.2261 22.2971 92.4508 21.8141 92.8999 21.4504C93.3489 21.0867 94.0568 20.9046 95.0226 20.9046H96.7612V20.8041C96.7612 20.3359 96.6203 19.9763 96.3394 19.7254C96.058 19.4745 95.6402 19.3488 95.0857 19.3488C94.7076 19.3488 94.3359 19.4075 93.9707 19.5245C93.6055 19.6419 93.2969 19.8047 93.0445 20.0139L92.4273 18.8723C92.7801 18.6049 93.2043 18.3999 93.6999 18.2577C94.1954 18.1155 94.7205 18.0444 95.2745 18.0444C96.2657 18.0444 97.0237 18.2806 97.5488 18.7535V18.7531ZM96.1128 23.4955C96.4195 23.3157 96.6355 23.0584 96.7617 22.7241V21.9462H95.1364C94.2291 21.9462 93.7759 22.2434 93.7759 22.8369C93.7759 23.1213 93.8892 23.3474 94.1162 23.5143C94.3428 23.6817 94.6578 23.7652 95.0613 23.7652C95.4647 23.7652 95.8065 23.6753 96.1132 23.4955H96.1128Z" fill="white"/>
<path d="M106.525 18.1191L103.375 25.3585C103.081 26.0864 102.725 26.5983 102.305 26.8955C101.885 27.1922 101.377 27.3408 100.78 27.3408C100.444 27.3408 100.112 27.2862 99.785 27.1775C99.4575 27.0688 99.1885 26.9184 98.9785 26.7258L99.6086 25.5713C99.7596 25.7135 99.9379 25.8263 100.144 25.9103C100.35 25.9937 100.558 26.0359 100.768 26.0359C101.045 26.0359 101.274 25.9649 101.454 25.8227C101.635 25.6805 101.801 25.442 101.952 25.1076L102.066 24.8444L99.13 18.1196H100.768L102.885 23.0753L105.014 18.1196H106.526L106.525 18.1191Z" fill="white"/>
<path d="M26.7373 16.3961L22.5038 13.9634L19.022 17.3152L22.204 20.3786L26.7373 17.7729C26.9869 17.6298 27.1361 17.3721 27.1361 17.085C27.1361 16.7979 26.9869 16.5401 26.7373 16.3965V16.3961Z" fill="white"/>
<path d="M21.7853 13.55L17.1262 10.8719L6.9165 5.66162L18.448 16.7624L21.7853 13.55Z" fill="white"/>
<path d="M7.08569 28.8047L17.1434 23.2871L21.4852 20.7916L18.4478 17.8677L7.08569 28.8047Z" fill="white"/>
<path d="M6.23517 6.11035L6.22412 28.5293L17.874 17.3143L6.23517 6.11035Z" fill="white"/>
</svg>
