<svg width="48" height="48" viewBox="0 0 48 48" fill="none" xmlns="http://www.w3.org/2000/svg">
    <path fill-rule="evenodd" clip-rule="evenodd" d="M23.9998 43.1998C34.6037 43.1998 43.1998 34.6037 43.1998 23.9998C43.1998 13.3959 34.6037 4.7998 23.9998 4.7998C13.3959 4.7998 4.7998 13.3959 4.7998 23.9998C4.7998 34.6037 13.3959 43.1998 23.9998 43.1998ZM32.8969 20.8969C33.8341 19.9596 33.8341 18.44 32.8969 17.5027C31.9596 16.5655 30.44 16.5655 29.5028 17.5027L21.5998 25.4057L18.4969 22.3027C17.5596 21.3655 16.04 21.3655 15.1027 22.3027C14.1655 23.24 14.1655 24.7596 15.1027 25.6969L19.9027 30.4969C20.84 31.4341 22.3596 31.4341 23.2969 30.4969L32.8969 20.8969Z" fill="#22C55E"/>
</svg>
