<svg width="16" height="16" viewBox="0 0 16 16" fill="none" xmlns="http://www.w3.org/2000/svg">
    <g clip-path="url(#clip0_248_3744)">
        <path d="M6.12811 0.656C5.32811 1.056 4.41611 1.904 4.06411 2.592C3.77611 3.168 3.50411 4 3.61611 4C3.66411 4 4.09611 3.792 4.60811 3.536C5.10411 3.296 6.19211 2.848 7.00811 2.56C8.59211 2 9.34411 1.392 9.24811 0.736C9.20011 0.432 9.08811 0.4 8.00011 0.368C7.05611 0.336 6.65611 0.4 6.12811 0.656Z" fill="#191B32"/>
        <path d="M9.53624 1.40808C9.16824 2.12808 8.73624 2.40008 6.94424 3.05608C4.81624 3.82408 3.74424 4.43208 3.13624 5.18408C2.72024 5.68008 2.64024 5.95208 2.59224 6.86408C2.52824 7.88808 2.56024 7.98408 3.02424 8.51208C3.29624 8.83208 3.52024 9.24808 3.52024 9.45608C3.52024 9.64808 3.63224 10.2721 3.77624 10.8321C4.01624 11.7761 4.01624 11.8881 3.77624 12.1441C3.24824 12.7201 3.61624 14.0801 4.28824 14.0801C4.40024 14.0801 4.48024 14.1761 4.48024 14.2881C4.48024 14.6561 5.04024 15.0401 5.56824 15.0401C5.84024 15.0401 6.30424 15.1841 6.59224 15.3601C7.29624 15.7921 8.60824 15.7921 9.44024 15.3601C9.79224 15.1841 10.2562 15.0401 10.4962 15.0401C10.7202 15.0401 11.1362 14.8641 11.4242 14.6401C12.5122 13.7761 12.5122 13.7921 12.4002 12.9921C12.1602 11.2001 12.3522 9.07208 12.8162 8.56008C13.5522 7.74408 13.6962 5.64808 13.0722 4.57608C12.8802 4.22408 12.6402 3.92008 12.5602 3.88808C12.4642 3.85608 12.2242 4.16008 12.0322 4.56008C11.6642 5.31208 10.7362 6.09608 9.82424 6.43208C9.52024 6.54408 9.28024 6.67208 9.28024 6.73608C9.28024 6.80008 9.58424 7.00808 9.96824 7.20008C10.3362 7.39208 10.8802 7.77608 11.1682 8.04808C11.7122 8.57608 11.7922 8.99208 11.5842 10.2721C11.4882 10.8001 11.4242 10.8801 11.0562 10.8801C10.5602 10.8801 10.2402 11.1361 10.2402 11.5521C10.2402 11.7281 10.1282 11.8401 9.95224 11.8401C9.42424 11.8401 9.28024 12.1921 9.28024 13.3921C9.28024 14.3681 9.23224 14.5761 8.97624 14.7201C8.56024 14.9281 7.63224 14.9281 7.12024 14.6881C6.70424 14.4961 6.65624 14.2721 6.70424 12.5601C6.72024 12.0321 6.64024 11.8401 6.17624 11.3761C5.72824 10.9601 5.50424 10.8641 5.13624 10.9121C4.68824 10.9761 4.65624 10.9281 4.49624 10.3041C4.16024 9.00808 4.25624 8.57608 4.97624 7.92008C5.79224 7.18408 6.59224 6.83208 8.16024 6.46408C10.8002 5.87208 11.8402 4.92808 11.8402 3.10408C11.8402 2.27208 11.7922 2.16008 11.2162 1.58408C10.4482 0.816081 9.87224 0.752081 9.53624 1.40808Z" fill="#191B32"/>
        <path d="M5.76025 9.43992C5.76025 9.87192 5.80825 9.91992 6.24025 9.91992C6.67225 9.91992 6.72025 9.87192 6.72025 9.43992C6.72025 9.00792 6.67225 8.95992 6.24025 8.95992C5.80825 8.95992 5.76025 9.00792 5.76025 9.43992Z" fill="#191B32"/>
        <path d="M9.28027 9.43992C9.28027 9.87192 9.32827 9.91992 9.76027 9.91992C10.1923 9.91992 10.2403 9.87192 10.2403 9.43992C10.2403 9.00792 10.1923 8.95992 9.76027 8.95992C9.32827 8.95992 9.28027 9.00792 9.28027 9.43992Z" fill="#191B32"/>
        <path d="M1.6001 11.2C1.6001 11.408 1.7121 11.52 1.9201 11.52C2.1281 11.52 2.2401 11.408 2.2401 11.2C2.2401 10.992 2.1281 10.88 1.9201 10.88C1.7121 10.88 1.6001 10.992 1.6001 11.2Z" fill="#191B32"/>
        <path d="M13.6321 11.0723C13.3921 11.3123 13.3921 12.0483 13.6321 12.2883C13.8721 12.5283 14.6081 12.5283 14.8481 12.2883C14.9601 12.1763 15.0401 11.9043 15.0401 11.6803C15.0401 11.1523 14.7681 10.8803 14.2401 10.8803C14.0161 10.8803 13.7441 10.9603 13.6321 11.0723Z" fill="#191B32"/>
        <path d="M0.512031 13.312C0.272031 13.552 0.272031 14.288 0.512031 14.528C0.752031 14.768 1.48803 14.768 1.72803 14.528C1.96803 14.288 1.96803 13.552 1.72803 13.312C1.48803 13.072 0.752031 13.072 0.512031 13.312Z" fill="#191B32"/>
        <path d="M15.04 13.7601C15.04 13.9681 15.152 14.0801 15.36 14.0801C15.568 14.0801 15.68 13.9681 15.68 13.7601C15.68 13.5521 15.568 13.4401 15.36 13.4401C15.152 13.4401 15.04 13.5521 15.04 13.7601Z" fill="#191B32"/>
    </g>
    <defs>
        <clipPath id="clip0_248_3744">
            <rect width="16" height="16" fill="white"/>
        </clipPath>
    </defs>
</svg>
