<svg width="16" height="16" viewBox="0 0 16 16" fill="none" xmlns="http://www.w3.org/2000/svg">
    <g clip-path="url(#clip0_248_3723)">
        <path d="M5.2002 1.35975C3.4402 1.80775 1.3122 2.62375 0.6082 3.10375C0.1602 3.40775 0.0802 3.55175 0.0322 4.20775C-0.0158 4.83175 0.0481999 5.02375 0.3842 5.35975C1.0722 6.03175 1.6962 5.91975 4.3202 4.57575C7.5362 2.94375 8.3522 2.67175 9.7122 2.75175C11.1202 2.84775 12.3362 3.32775 14.0802 4.49575C14.8482 5.00775 15.6002 5.43975 15.7442 5.43975C16.4642 5.43975 15.6642 4.35175 14.0002 3.08775C13.0562 2.36775 11.4082 1.50375 10.4162 1.21575C9.1202 0.831747 6.9442 0.895747 5.2002 1.35975Z" fill="#191B32"/>
        <path d="M5.83996 6.30396C4.23996 6.83196 2.70396 7.91996 1.63196 9.31196C1.26396 9.79196 0.959961 10.368 0.959961 10.576C0.959961 11.088 2.31996 12.752 3.32796 13.504C3.77596 13.824 4.54396 14.272 5.05596 14.528C5.93596 14.928 6.15996 14.96 7.99996 14.96C9.83996 14.96 10.064 14.928 10.944 14.528C11.456 14.272 12.224 13.824 12.672 13.504C13.712 12.736 15.04 11.088 15.04 10.56C15.04 10.032 13.712 8.38396 12.672 7.61596C11.12 6.47996 10.208 6.17596 8.23996 6.12796C7.10396 6.09596 6.25596 6.15996 5.83996 6.30396ZM10.32 8.71996C11.392 8.99196 13.328 9.87196 13.888 10.336L14.256 10.64L13.36 11.648C11.68 13.488 10.144 14.24 7.99996 14.24C5.85596 14.24 4.31996 13.488 2.63996 11.648L1.74396 10.64L2.11196 10.336C2.65596 9.88796 4.59196 9.00796 5.59996 8.73596C6.76796 8.43196 9.13596 8.41596 10.32 8.71996Z" fill="#191B32"/>
        <path d="M6.16029 9.07212C4.88029 9.36012 4.80029 9.42412 4.80029 10.1921C4.80029 11.1841 5.39229 12.1921 6.30429 12.7201C6.83229 13.0401 7.20029 13.1201 8.00029 13.1201C8.80029 13.1201 9.16829 13.0401 9.69629 12.7201C10.6083 12.1921 11.2003 11.1841 11.2003 10.1921C11.2003 9.40812 11.1363 9.36012 9.74429 9.05612C9.32829 8.96012 9.32829 8.97612 9.40829 9.74412C9.47229 10.4321 9.42429 10.5921 9.07229 10.9441C8.49629 11.5201 7.50429 11.5201 6.92829 10.9441C6.57629 10.5921 6.52829 10.4321 6.59229 9.74412C6.64029 9.31212 6.62429 8.97612 6.57629 8.97612C6.52829 8.99212 6.33629 9.02412 6.16029 9.07212Z" fill="#191B32"/>
    </g>
    <defs>
        <clipPath id="clip0_248_3723">
            <rect width="16" height="16" fill="white"/>
        </clipPath>
    </defs>
</svg>
