<svg width="32" height="32" viewBox="0 0 32 32" fill="none" xmlns="http://www.w3.org/2000/svg">
    <path fill-rule="evenodd" clip-rule="evenodd" d="M27.3333 9.33317H4.66667C4.29848 9.33317 4 9.03469 4 8.6665V7.33317C4 6.96498 4.29848 6.6665 4.66667 6.6665H27.3333C27.7015 6.6665 28 6.96498 28 7.33317V8.6665C28 9.03469 27.7015 9.33317 27.3333 9.33317ZM24 16.6665V15.3332C24 14.965 23.7015 14.6665 23.3333 14.6665H8.66667C8.29848 14.6665 8 14.965 8 15.3332V16.6665C8 17.0346 8.29848 17.3332 8.66667 17.3332H23.3333C23.7015 17.3332 24 17.0346 24 16.6665ZM20 23.3332V24.6665C20 25.0346 19.7015 25.3332 19.3333 25.3332H12.6667C12.2985 25.3332 12 25.0346 12 24.6665V23.3332C12 22.965 12.2985 22.6665 12.6667 22.6665H19.3333C19.7015 22.6665 20 22.965 20 23.3332Z" fill="#191B32"/>
</svg>
