<svg width="16" height="16" viewBox="0 0 16 16" fill="none" xmlns="http://www.w3.org/2000/svg">
    <path d="M2.624 0.943792C1.68 1.37579 0.88 2.14379 0.416 3.07179C0.08 3.74379 0 4.12779 0 5.10379C0.016 7.02379 0.816 8.38379 2.432 9.18379C3.888 9.91979 5.184 9.74379 11.888 7.98379L12.48 7.82379V5.11979V2.41579L11.888 2.25579C5.824 0.655792 3.872 0.383793 2.624 0.943792ZM5.936 3.66379C6.496 4.22379 6.56 4.36779 6.56 5.11979C6.56 5.87179 6.496 6.01579 5.936 6.57579C5.376 7.13579 5.232 7.19979 4.48 7.19979C3.728 7.19979 3.584 7.13579 3.024 6.57579C2.464 6.01579 2.4 5.87179 2.4 5.11979C2.4 4.36779 2.464 4.22379 3.024 3.66379C3.584 3.10379 3.728 3.03979 4.48 3.03979C5.232 3.03979 5.376 3.10379 5.936 3.66379Z" fill="#191B32"/>
    <path d="M3.29588 3.93556C2.95988 4.27156 2.87988 4.51156 2.87988 5.11956C2.87988 5.72756 2.95988 5.96756 3.29588 6.30356C3.90388 6.89556 5.05588 6.89556 5.66388 6.30356C5.99988 5.96756 6.07988 5.72756 6.07988 5.11956C6.07988 4.06356 5.53588 3.51956 4.47988 3.51956C3.87188 3.51956 3.63188 3.59956 3.29588 3.93556Z" fill="#191B32"/>
    <path d="M12.7839 3.29572C12.5279 3.59972 12.8639 3.99972 13.3919 3.99972C13.5999 3.99972 13.9679 4.09572 14.2079 4.22372C14.4479 4.35172 14.9279 4.46372 15.2799 4.49572C15.8719 4.55972 15.9199 4.52772 15.9199 4.15972C15.9199 3.83972 15.8239 3.74372 15.3599 3.67972C15.0559 3.61572 14.6559 3.50372 14.4799 3.40772C13.9039 3.10372 12.9919 3.03972 12.7839 3.29572Z" fill="#191B32"/>
    <path d="M12.7839 4.89582C12.5279 5.19982 12.8639 5.59982 13.3919 5.59982C13.5999 5.59982 13.9679 5.69582 14.2079 5.82382C14.4479 5.95182 14.9279 6.06382 15.2799 6.09582C15.8719 6.15982 15.9199 6.12782 15.9199 5.75982C15.9199 5.43982 15.8239 5.34382 15.3599 5.27982C15.0559 5.21582 14.6559 5.10382 14.4799 5.00782C13.9039 4.70382 12.9919 4.63982 12.7839 4.89582Z" fill="#191B32"/>
    <path d="M12.7839 6.49591C12.5279 6.79991 12.8639 7.19991 13.3919 7.19991C13.5999 7.19991 13.9679 7.29591 14.2079 7.42391C14.4479 7.55191 14.9279 7.66391 15.2799 7.69591C15.8719 7.75991 15.9199 7.72791 15.9199 7.35991C15.9199 7.03991 15.8239 6.94391 15.3599 6.87991C15.0559 6.81591 14.6559 6.70391 14.4799 6.60791C13.9039 6.30391 12.9919 6.23991 12.7839 6.49591Z" fill="#191B32"/>
    <path d="M1.55178 10.6718C1.50378 11.3598 1.40778 12.3998 1.34378 12.9758C1.21578 14.1918 1.37578 14.5918 2.09578 14.9598C2.75178 15.3118 5.18378 15.4718 5.51978 15.1998C5.79178 14.9758 5.85578 13.9998 5.59978 13.8398C5.32778 13.6638 5.42378 12.3838 5.80778 11.1518L6.19178 9.98378L4.89578 10.0478C3.95178 10.0958 3.40778 10.0318 2.87978 9.83978C1.53578 9.34378 1.64778 9.27978 1.55178 10.6718Z" fill="#191B32"/>
</svg>
