<svg width="16" height="16" viewBox="0 0 16 16" fill="none" xmlns="http://www.w3.org/2000/svg">
    <g clip-path="url(#clip0_248_3756)">
        <path d="M11.4398 2.51205C10.0318 3.69605 8.67177 4.84805 8.43177 5.05605L7.96777 5.44005L9.13577 6.72005C9.75977 7.42405 10.3678 8.00005 10.4638 7.98405C10.5598 7.98405 11.7758 6.64005 13.1678 5.00805C15.4238 2.33605 15.6798 1.98405 15.6798 1.44005C15.6798 0.704049 15.2798 0.320049 14.5438 0.320049C14.0798 0.336049 13.6318 0.640049 11.4398 2.51205Z" fill="#191B32"/>
        <path d="M5.9201 7.13578C4.9921 7.88778 4.1761 8.57578 4.0801 8.65578C3.9361 8.79978 7.0081 12.0478 7.2161 11.9678C7.4401 11.8718 10.0801 8.60778 10.0801 8.41578C10.0801 8.31978 9.5201 7.67978 8.8321 6.99178L7.6001 5.75978L5.9201 7.13578Z" fill="#191B32"/>
        <path d="M1.92002 9.968L0.400017 10.8L0.352017 11.728C0.320017 12.304 0.368017 12.64 0.480017 12.64C0.576017 12.64 1.05602 12.384 1.53602 12.08C2.01602 11.776 2.48002 11.52 2.56002 11.52C2.96002 11.52 2.62402 11.888 1.68002 12.496C1.10402 12.848 0.640017 13.232 0.640017 13.328C0.640017 13.872 2.01602 15.36 2.51202 15.36C2.60802 15.36 2.84802 15.104 3.05602 14.8C3.26402 14.496 3.53602 14.24 3.64802 14.24C3.92002 14.24 3.88802 14.416 3.52002 14.88C3.07202 15.456 3.12002 15.632 3.80802 15.712C4.92802 15.856 5.13602 15.712 6.06402 14.016L6.92802 12.448L5.26402 10.784C4.35202 9.872 3.56802 9.12 3.52002 9.12C3.47202 9.12 2.75202 9.504 1.92002 9.968Z" fill="#191B32"/>
    </g>
    <defs>
        <clipPath id="clip0_248_3756">
            <rect width="16" height="16" fill="white"/>
        </clipPath>
    </defs>
</svg>
