<svg width="16" height="16" viewBox="0 0 16 16" fill="none" xmlns="http://www.w3.org/2000/svg">
    <path d="M6.08001 0.847864C5.77601 0.959865 5.37601 1.27986 5.16801 1.58386C4.84801 2.04786 4.80001 2.33586 4.80001 3.64786C4.80001 5.11986 4.78401 5.16786 4.30401 5.72786C4.01601 6.04786 3.60001 6.70386 3.37601 7.19986C2.97601 8.04786 2.96001 8.19186 2.91201 11.7119C2.84801 15.2319 2.86401 15.3599 3.16801 15.3599C3.45601 15.3599 3.47201 15.1839 3.56801 12.1919C3.66401 8.97586 3.85601 7.80786 4.44801 6.89586C4.70401 6.51186 4.72001 6.59186 4.80001 9.03986L4.88001 11.5999L5.60001 11.9999C6.24001 12.3519 6.49601 12.3999 8.00001 12.3999C9.50401 12.3999 9.76001 12.3519 10.4 11.9999L11.12 11.5999L11.2 8.95986L11.28 6.31986L11.728 7.24786C12.272 8.31986 12.464 9.96786 12.48 13.2319C12.48 15.2479 12.496 15.3599 12.8 15.3599C13.104 15.3599 13.12 15.2479 13.12 12.0319C13.12 7.87186 12.88 6.81586 11.696 5.69586C11.216 5.23186 11.2 5.19986 11.2 3.67986C11.2 2.33586 11.152 2.06386 10.832 1.58386C10.624 1.27986 10.224 0.959865 9.92001 0.847864C9.20001 0.607864 6.80001 0.607864 6.08001 0.847864ZM9.92001 6.78386V10.6879L9.40801 10.8479C8.35201 11.1679 8.00001 11.1999 7.20002 11.0239C5.96801 10.7679 6.28801 10.4959 7.85601 10.4959L9.20001 10.4799L9.24801 6.67186C9.28001 3.00786 9.29601 2.87986 9.60001 2.87986C9.90401 2.87986 9.92001 2.99186 9.92001 6.78386Z" fill="#191B32"/>
</svg>
