<svg width="33" height="33" viewBox="0 0 33 33" fill="none" xmlns="http://www.w3.org/2000/svg">
    <path d="M17.6848 30.2035L17.6848 30.2036C17.0314 30.9312 15.889 30.9328 15.2342 30.2036L17.6848 30.2035ZM17.6848 30.2035C17.8851 29.9805 20.2347 27.3434 22.5387 23.8949C23.6907 22.1706 24.8414 20.2286 25.7063 18.2727C26.567 16.3262 27.1689 14.3125 27.1689 12.4594C27.1687 6.55359 22.3653 1.75 16.4595 1.75C10.5536 1.75 5.75 6.55357 5.75 12.4594M17.6848 30.2035L5.75 12.4594M5.75 12.4594C5.75 14.3125 6.35184 16.3262 7.21261 18.2727M5.75 12.4594L7.21261 18.2727M7.21261 18.2727C8.07749 20.2286 9.22815 22.1706 10.3802 23.8949M7.21261 18.2727L10.3802 23.8949M10.3802 23.8949C12.6838 27.3429 15.0331 29.9797 15.2341 30.2035L10.3802 23.8949Z" fill="#191B32" stroke="white" stroke-width="1.5"/>
    <path d="M12.9575 17.9711C12.8711 17.8708 15.3029 14.84 15.8148 14.048C15.8725 13.9587 16.9382 14.2758 16.9304 14.1846C16.9122 13.9711 14.0763 12.2585 14.0629 11.8882C14.0489 11.5177 19.7721 7.54319 19.8599 7.67351C19.9377 7.78954 17.8341 10.6936 17.0688 11.6368C16.6508 11.6368 16.3 11.5318 15.9899 11.5318C16.0295 11.741 18.7841 13.3761 18.7539 13.7563C18.7244 14.1366 13.053 18.0825 12.9575 17.9711Z" fill="white"/>
</svg>
