<svg width="244" height="244" viewBox="0 0 244 244" fill="none" xmlns="http://www.w3.org/2000/svg">
<g clip-path="url(#clip0_2166_2422)">
<path d="M244 0H0V244H244V0Z" fill="white"/>
<path d="M22.6121 15.25H15.25V22.6121H22.6121V15.25Z" fill="black"/>
<path d="M29.9741 15.25H22.6121V22.6121H29.9741V15.25Z" fill="black"/>
<path d="M37.3362 15.25H29.9741V22.6121H37.3362V15.25Z" fill="black"/>
<path d="M44.6983 15.25H37.3362V22.6121H44.6983V15.25Z" fill="black"/>
<path d="M52.0603 15.25H44.6983V22.6121H52.0603V15.25Z" fill="black"/>
<path d="M59.4224 15.25H52.0603V22.6121H59.4224V15.25Z" fill="black"/>
<path d="M66.7845 15.25H59.4224V22.6121H66.7845V15.25Z" fill="black"/>
<path d="M81.5086 15.25H74.1466V22.6121H81.5086V15.25Z" fill="black"/>
<path d="M88.8707 15.25H81.5086V22.6121H88.8707V15.25Z" fill="black"/>
<path d="M96.2328 15.25H88.8707V22.6121H96.2328V15.25Z" fill="black"/>
<path d="M103.595 15.25H96.2328V22.6121H103.595V15.25Z" fill="black"/>
<path d="M133.043 15.25H125.681V22.6121H133.043V15.25Z" fill="black"/>
<path d="M147.767 15.25H140.405V22.6121H147.767V15.25Z" fill="black"/>
<path d="M169.853 15.25H162.491V22.6121H169.853V15.25Z" fill="black"/>
<path d="M184.578 15.25H177.216V22.6121H184.578V15.25Z" fill="black"/>
<path d="M191.94 15.25H184.578V22.6121H191.94V15.25Z" fill="black"/>
<path d="M199.302 15.25H191.94V22.6121H199.302V15.25Z" fill="black"/>
<path d="M206.664 15.25H199.302V22.6121H206.664V15.25Z" fill="black"/>
<path d="M214.026 15.25H206.664V22.6121H214.026V15.25Z" fill="black"/>
<path d="M221.388 15.25H214.026V22.6121H221.388V15.25Z" fill="black"/>
<path d="M228.75 15.25H221.388V22.6121H228.75V15.25Z" fill="black"/>
<path d="M22.6121 22.6121H15.25V29.9741H22.6121V22.6121Z" fill="black"/>
<path d="M66.7845 22.6121H59.4224V29.9741H66.7845V22.6121Z" fill="black"/>
<path d="M118.319 22.6121H110.957V29.9741H118.319V22.6121Z" fill="black"/>
<path d="M140.405 22.6121H133.043V29.9741H140.405V22.6121Z" fill="black"/>
<path d="M169.853 22.6121H162.491V29.9741H169.853V22.6121Z" fill="black"/>
<path d="M184.578 22.6121H177.216V29.9741H184.578V22.6121Z" fill="black"/>
<path d="M228.75 22.6121H221.388V29.9741H228.75V22.6121Z" fill="black"/>
<path d="M22.6121 29.9741H15.25V37.3362H22.6121V29.9741Z" fill="black"/>
<path d="M37.3362 29.9741H29.9741V37.3362H37.3362V29.9741Z" fill="black"/>
<path d="M44.6983 29.9741H37.3362V37.3362H44.6983V29.9741Z" fill="black"/>
<path d="M52.0603 29.9741H44.6983V37.3362H52.0603V29.9741Z" fill="black"/>
<path d="M66.7845 29.9741H59.4224V37.3362H66.7845V29.9741Z" fill="black"/>
<path d="M88.8707 29.9741H81.5086V37.3362H88.8707V29.9741Z" fill="black"/>
<path d="M96.2328 29.9741H88.8707V37.3362H96.2328V29.9741Z" fill="black"/>
<path d="M110.957 29.9741H103.595V37.3362H110.957V29.9741Z" fill="black"/>
<path d="M118.319 29.9741H110.957V37.3362H118.319V29.9741Z" fill="black"/>
<path d="M125.681 29.9741H118.319V37.3362H125.681V29.9741Z" fill="black"/>
<path d="M133.043 29.9741H125.681V37.3362H133.043V29.9741Z" fill="black"/>
<path d="M147.767 29.9741H140.405V37.3362H147.767V29.9741Z" fill="black"/>
<path d="M155.129 29.9741H147.767V37.3362H155.129V29.9741Z" fill="black"/>
<path d="M184.578 29.9741H177.216V37.3362H184.578V29.9741Z" fill="black"/>
<path d="M199.302 29.9741H191.94V37.3362H199.302V29.9741Z" fill="black"/>
<path d="M206.664 29.9741H199.302V37.3362H206.664V29.9741Z" fill="black"/>
<path d="M214.026 29.9741H206.664V37.3362H214.026V29.9741Z" fill="black"/>
<path d="M228.75 29.9741H221.388V37.3362H228.75V29.9741Z" fill="black"/>
<path d="M22.6121 37.3362H15.25V44.6983H22.6121V37.3362Z" fill="black"/>
<path d="M37.3362 37.3362H29.9741V44.6983H37.3362V37.3362Z" fill="black"/>
<path d="M44.6983 37.3362H37.3362V44.6983H44.6983V37.3362Z" fill="black"/>
<path d="M52.0603 37.3362H44.6983V44.6983H52.0603V37.3362Z" fill="black"/>
<path d="M66.7845 37.3362H59.4224V44.6983H66.7845V37.3362Z" fill="black"/>
<path d="M96.2328 37.3362H88.8707V44.6983H96.2328V37.3362Z" fill="black"/>
<path d="M103.595 37.3362H96.2328V44.6983H103.595V37.3362Z" fill="black"/>
<path d="M147.767 37.3362H140.405V44.6983H147.767V37.3362Z" fill="black"/>
<path d="M162.491 37.3362H155.129V44.6983H162.491V37.3362Z" fill="black"/>
<path d="M169.853 37.3362H162.491V44.6983H169.853V37.3362Z" fill="black"/>
<path d="M184.578 37.3362H177.216V44.6983H184.578V37.3362Z" fill="black"/>
<path d="M199.302 37.3362H191.94V44.6983H199.302V37.3362Z" fill="black"/>
<path d="M206.664 37.3362H199.302V44.6983H206.664V37.3362Z" fill="black"/>
<path d="M214.026 37.3362H206.664V44.6983H214.026V37.3362Z" fill="black"/>
<path d="M228.75 37.3362H221.388V44.6983H228.75V37.3362Z" fill="black"/>
<path d="M22.6121 44.6983H15.25V52.0603H22.6121V44.6983Z" fill="black"/>
<path d="M37.3362 44.6983H29.9741V52.0603H37.3362V44.6983Z" fill="black"/>
<path d="M44.6983 44.6983H37.3362V52.0603H44.6983V44.6983Z" fill="black"/>
<path d="M52.0603 44.6983H44.6983V52.0603H52.0603V44.6983Z" fill="black"/>
<path d="M66.7845 44.6983H59.4224V52.0603H66.7845V44.6983Z" fill="black"/>
<path d="M81.5086 44.6983H74.1466V52.0603H81.5086V44.6983Z" fill="black"/>
<path d="M96.2328 44.6983H88.8707V52.0603H96.2328V44.6983Z" fill="black"/>
<path d="M103.595 44.6983H96.2328V52.0603H103.595V44.6983Z" fill="black"/>
<path d="M125.681 44.6983H118.319V52.0603H125.681V44.6983Z" fill="black"/>
<path d="M133.043 44.6983H125.681V52.0603H133.043V44.6983Z" fill="black"/>
<path d="M162.491 44.6983H155.129V52.0603H162.491V44.6983Z" fill="black"/>
<path d="M184.578 44.6983H177.216V52.0603H184.578V44.6983Z" fill="black"/>
<path d="M199.302 44.6983H191.94V52.0603H199.302V44.6983Z" fill="black"/>
<path d="M206.664 44.6983H199.302V52.0603H206.664V44.6983Z" fill="black"/>
<path d="M214.026 44.6983H206.664V52.0603H214.026V44.6983Z" fill="black"/>
<path d="M228.75 44.6983H221.388V52.0603H228.75V44.6983Z" fill="black"/>
<path d="M22.6121 52.0603H15.25V59.4224H22.6121V52.0603Z" fill="black"/>
<path d="M66.7845 52.0603H59.4224V59.4224H66.7845V52.0603Z" fill="black"/>
<path d="M103.595 52.0603H96.2328V59.4224H103.595V52.0603Z" fill="black"/>
<path d="M110.957 52.0603H103.595V59.4224H110.957V52.0603Z" fill="black"/>
<path d="M140.405 52.0603H133.043V59.4224H140.405V52.0603Z" fill="black"/>
<path d="M147.767 52.0603H140.405V59.4224H147.767V52.0603Z" fill="black"/>
<path d="M162.491 52.0603H155.129V59.4224H162.491V52.0603Z" fill="black"/>
<path d="M169.853 52.0603H162.491V59.4224H169.853V52.0603Z" fill="black"/>
<path d="M184.578 52.0603H177.216V59.4224H184.578V52.0603Z" fill="black"/>
<path d="M228.75 52.0603H221.388V59.4224H228.75V52.0603Z" fill="black"/>
<path d="M22.6121 59.4224H15.25V66.7845H22.6121V59.4224Z" fill="black"/>
<path d="M29.9741 59.4224H22.6121V66.7845H29.9741V59.4224Z" fill="black"/>
<path d="M37.3362 59.4224H29.9741V66.7845H37.3362V59.4224Z" fill="black"/>
<path d="M44.6983 59.4224H37.3362V66.7845H44.6983V59.4224Z" fill="black"/>
<path d="M52.0603 59.4224H44.6983V66.7845H52.0603V59.4224Z" fill="black"/>
<path d="M59.4224 59.4224H52.0603V66.7845H59.4224V59.4224Z" fill="black"/>
<path d="M66.7845 59.4224H59.4224V66.7845H66.7845V59.4224Z" fill="black"/>
<path d="M81.5086 59.4224H74.1466V66.7845H81.5086V59.4224Z" fill="black"/>
<path d="M96.2328 59.4224H88.8707V66.7845H96.2328V59.4224Z" fill="black"/>
<path d="M110.957 59.4224H103.595V66.7845H110.957V59.4224Z" fill="black"/>
<path d="M125.681 59.4224H118.319V66.7845H125.681V59.4224Z" fill="black"/>
<path d="M140.405 59.4224H133.043V66.7845H140.405V59.4224Z" fill="black"/>
<path d="M155.129 59.4224H147.767V66.7845H155.129V59.4224Z" fill="black"/>
<path d="M169.853 59.4224H162.491V66.7845H169.853V59.4224Z" fill="black"/>
<path d="M184.578 59.4224H177.216V66.7845H184.578V59.4224Z" fill="black"/>
<path d="M191.94 59.4224H184.578V66.7845H191.94V59.4224Z" fill="black"/>
<path d="M199.302 59.4224H191.94V66.7845H199.302V59.4224Z" fill="black"/>
<path d="M206.664 59.4224H199.302V66.7845H206.664V59.4224Z" fill="black"/>
<path d="M214.026 59.4224H206.664V66.7845H214.026V59.4224Z" fill="black"/>
<path d="M221.388 59.4224H214.026V66.7845H221.388V59.4224Z" fill="black"/>
<path d="M228.75 59.4224H221.388V66.7845H228.75V59.4224Z" fill="black"/>
<path d="M81.5086 66.7845H74.1466V74.1466H81.5086V66.7845Z" fill="black"/>
<path d="M96.2328 66.7845H88.8707V74.1466H96.2328V66.7845Z" fill="black"/>
<path d="M133.043 66.7845H125.681V74.1466H133.043V66.7845Z" fill="black"/>
<path d="M140.405 66.7845H133.043V74.1466H140.405V66.7845Z" fill="black"/>
<path d="M22.6121 74.1466H15.25V81.5086H22.6121V74.1466Z" fill="black"/>
<path d="M44.6983 74.1466H37.3362V81.5086H44.6983V74.1466Z" fill="black"/>
<path d="M52.0603 74.1466H44.6983V81.5086H52.0603V74.1466Z" fill="black"/>
<path d="M59.4224 74.1466H52.0603V81.5086H59.4224V74.1466Z" fill="black"/>
<path d="M66.7845 74.1466H59.4224V81.5086H66.7845V74.1466Z" fill="black"/>
<path d="M74.1466 74.1466H66.7845V81.5086H74.1466V74.1466Z" fill="black"/>
<path d="M81.5086 74.1466H74.1466V81.5086H81.5086V74.1466Z" fill="black"/>
<path d="M88.8707 74.1466H81.5086V81.5086H88.8707V74.1466Z" fill="black"/>
<path d="M125.681 74.1466H118.319V81.5086H125.681V74.1466Z" fill="black"/>
<path d="M140.405 74.1466H133.043V81.5086H140.405V74.1466Z" fill="black"/>
<path d="M147.767 74.1466H140.405V81.5086H147.767V74.1466Z" fill="black"/>
<path d="M155.129 74.1466H147.767V81.5086H155.129V74.1466Z" fill="black"/>
<path d="M177.216 74.1466H169.853V81.5086H177.216V74.1466Z" fill="black"/>
<path d="M184.578 74.1466H177.216V81.5086H184.578V74.1466Z" fill="black"/>
<path d="M199.302 74.1466H191.94V81.5086H199.302V74.1466Z" fill="black"/>
<path d="M228.75 74.1466H221.388V81.5086H228.75V74.1466Z" fill="black"/>
<path d="M44.6983 81.5086H37.3362V88.8707H44.6983V81.5086Z" fill="black"/>
<path d="M52.0603 81.5086H44.6983V88.8707H52.0603V81.5086Z" fill="black"/>
<path d="M74.1466 81.5086H66.7845V88.8707H74.1466V81.5086Z" fill="black"/>
<path d="M81.5086 81.5086H74.1466V88.8707H81.5086V81.5086Z" fill="black"/>
<path d="M88.8707 81.5086H81.5086V88.8707H88.8707V81.5086Z" fill="black"/>
<path d="M125.681 81.5086H118.319V88.8707H125.681V81.5086Z" fill="black"/>
<path d="M140.405 81.5086H133.043V88.8707H140.405V81.5086Z" fill="black"/>
<path d="M162.491 81.5086H155.129V88.8707H162.491V81.5086Z" fill="black"/>
<path d="M177.216 81.5086H169.853V88.8707H177.216V81.5086Z" fill="black"/>
<path d="M184.578 81.5086H177.216V88.8707H184.578V81.5086Z" fill="black"/>
<path d="M191.94 81.5086H184.578V88.8707H191.94V81.5086Z" fill="black"/>
<path d="M199.302 81.5086H191.94V88.8707H199.302V81.5086Z" fill="black"/>
<path d="M206.664 81.5086H199.302V88.8707H206.664V81.5086Z" fill="black"/>
<path d="M214.026 81.5086H206.664V88.8707H214.026V81.5086Z" fill="black"/>
<path d="M228.75 81.5086H221.388V88.8707H228.75V81.5086Z" fill="black"/>
<path d="M22.6121 88.8707H15.25V96.2328H22.6121V88.8707Z" fill="black"/>
<path d="M29.9741 88.8707H22.6121V96.2328H29.9741V88.8707Z" fill="black"/>
<path d="M37.3362 88.8707H29.9741V96.2328H37.3362V88.8707Z" fill="black"/>
<path d="M52.0603 88.8707H44.6983V96.2328H52.0603V88.8707Z" fill="black"/>
<path d="M66.7845 88.8707H59.4224V96.2328H66.7845V88.8707Z" fill="black"/>
<path d="M118.319 88.8707H110.957V96.2328H118.319V88.8707Z" fill="black"/>
<path d="M133.043 88.8707H125.681V96.2328H133.043V88.8707Z" fill="black"/>
<path d="M140.405 88.8707H133.043V96.2328H140.405V88.8707Z" fill="black"/>
<path d="M147.767 88.8707H140.405V96.2328H147.767V88.8707Z" fill="black"/>
<path d="M155.129 88.8707H147.767V96.2328H155.129V88.8707Z" fill="black"/>
<path d="M169.853 88.8707H162.491V96.2328H169.853V88.8707Z" fill="black"/>
<path d="M177.216 88.8707H169.853V96.2328H177.216V88.8707Z" fill="black"/>
<path d="M184.578 88.8707H177.216V96.2328H184.578V88.8707Z" fill="black"/>
<path d="M191.94 88.8707H184.578V96.2328H191.94V88.8707Z" fill="black"/>
<path d="M199.302 88.8707H191.94V96.2328H199.302V88.8707Z" fill="black"/>
<path d="M221.388 88.8707H214.026V96.2328H221.388V88.8707Z" fill="black"/>
<path d="M228.75 88.8707H221.388V96.2328H228.75V88.8707Z" fill="black"/>
<path d="M22.6121 96.2328H15.25V103.595H22.6121V96.2328Z" fill="black"/>
<path d="M37.3362 96.2328H29.9741V103.595H37.3362V96.2328Z" fill="black"/>
<path d="M44.6983 96.2328H37.3362V103.595H44.6983V96.2328Z" fill="black"/>
<path d="M74.1466 96.2328H66.7845V103.595H74.1466V96.2328Z" fill="black"/>
<path d="M81.5086 96.2328H74.1466V103.595H81.5086V96.2328Z" fill="black"/>
<path d="M88.8707 96.2328H81.5086V103.595H88.8707V96.2328Z" fill="black"/>
<path d="M103.595 96.2328H96.2328V103.595H103.595V96.2328Z" fill="black"/>
<path d="M110.957 96.2328H103.595V103.595H110.957V96.2328Z" fill="black"/>
<path d="M125.681 96.2328H118.319V103.595H125.681V96.2328Z" fill="black"/>
<path d="M140.405 96.2328H133.043V103.595H140.405V96.2328Z" fill="black"/>
<path d="M147.767 96.2328H140.405V103.595H147.767V96.2328Z" fill="black"/>
<path d="M169.853 96.2328H162.491V103.595H169.853V96.2328Z" fill="black"/>
<path d="M184.578 96.2328H177.216V103.595H184.578V96.2328Z" fill="black"/>
<path d="M199.302 96.2328H191.94V103.595H199.302V96.2328Z" fill="black"/>
<path d="M214.026 96.2328H206.664V103.595H214.026V96.2328Z" fill="black"/>
<path d="M221.388 96.2328H214.026V103.595H221.388V96.2328Z" fill="black"/>
<path d="M228.75 96.2328H221.388V103.595H228.75V96.2328Z" fill="black"/>
<path d="M37.3362 103.595H29.9741V110.957H37.3362V103.595Z" fill="black"/>
<path d="M44.6983 103.595H37.3362V110.957H44.6983V103.595Z" fill="black"/>
<path d="M59.4224 103.595H52.0603V110.957H59.4224V103.595Z" fill="black"/>
<path d="M66.7845 103.595H59.4224V110.957H66.7845V103.595Z" fill="black"/>
<path d="M103.595 103.595H96.2328V110.957H103.595V103.595Z" fill="black"/>
<path d="M110.957 103.595H103.595V110.957H110.957V103.595Z" fill="black"/>
<path d="M140.405 103.595H133.043V110.957H140.405V103.595Z" fill="black"/>
<path d="M162.491 103.595H155.129V110.957H162.491V103.595Z" fill="black"/>
<path d="M177.216 103.595H169.853V110.957H177.216V103.595Z" fill="black"/>
<path d="M199.302 103.595H191.94V110.957H199.302V103.595Z" fill="black"/>
<path d="M206.664 103.595H199.302V110.957H206.664V103.595Z" fill="black"/>
<path d="M214.026 103.595H206.664V110.957H214.026V103.595Z" fill="black"/>
<path d="M221.388 103.595H214.026V110.957H221.388V103.595Z" fill="black"/>
<path d="M228.75 103.595H221.388V110.957H228.75V103.595Z" fill="black"/>
<path d="M37.3362 110.957H29.9741V118.319H37.3362V110.957Z" fill="black"/>
<path d="M52.0603 110.957H44.6983V118.319H52.0603V110.957Z" fill="black"/>
<path d="M59.4224 110.957H52.0603V118.319H59.4224V110.957Z" fill="black"/>
<path d="M81.5086 110.957H74.1466V118.319H81.5086V110.957Z" fill="black"/>
<path d="M96.2328 110.957H88.8707V118.319H96.2328V110.957Z" fill="black"/>
<path d="M103.595 110.957H96.2328V118.319H103.595V110.957Z" fill="black"/>
<path d="M110.957 110.957H103.595V118.319H110.957V110.957Z" fill="black"/>
<path d="M118.319 110.957H110.957V118.319H118.319V110.957Z" fill="black"/>
<path d="M140.405 110.957H133.043V118.319H140.405V110.957Z" fill="black"/>
<path d="M155.129 110.957H147.767V118.319H155.129V110.957Z" fill="black"/>
<path d="M162.491 110.957H155.129V118.319H162.491V110.957Z" fill="black"/>
<path d="M169.853 110.957H162.491V118.319H169.853V110.957Z" fill="black"/>
<path d="M177.216 110.957H169.853V118.319H177.216V110.957Z" fill="black"/>
<path d="M199.302 110.957H191.94V118.319H199.302V110.957Z" fill="black"/>
<path d="M221.388 110.957H214.026V118.319H221.388V110.957Z" fill="black"/>
<path d="M44.6983 118.319H37.3362V125.681H44.6983V118.319Z" fill="black"/>
<path d="M52.0603 118.319H44.6983V125.681H52.0603V118.319Z" fill="black"/>
<path d="M59.4224 118.319H52.0603V125.681H59.4224V118.319Z" fill="black"/>
<path d="M66.7845 118.319H59.4224V125.681H66.7845V118.319Z" fill="black"/>
<path d="M74.1466 118.319H66.7845V125.681H74.1466V118.319Z" fill="black"/>
<path d="M81.5086 118.319H74.1466V125.681H81.5086V118.319Z" fill="black"/>
<path d="M96.2328 118.319H88.8707V125.681H96.2328V118.319Z" fill="black"/>
<path d="M118.319 118.319H110.957V125.681H118.319V118.319Z" fill="black"/>
<path d="M133.043 118.319H125.681V125.681H133.043V118.319Z" fill="black"/>
<path d="M140.405 118.319H133.043V125.681H140.405V118.319Z" fill="black"/>
<path d="M155.129 118.319H147.767V125.681H155.129V118.319Z" fill="black"/>
<path d="M177.216 118.319H169.853V125.681H177.216V118.319Z" fill="black"/>
<path d="M191.94 118.319H184.578V125.681H191.94V118.319Z" fill="black"/>
<path d="M199.302 118.319H191.94V125.681H199.302V118.319Z" fill="black"/>
<path d="M221.388 118.319H214.026V125.681H221.388V118.319Z" fill="black"/>
<path d="M37.3362 125.681H29.9741V133.043H37.3362V125.681Z" fill="black"/>
<path d="M44.6983 125.681H37.3362V133.043H44.6983V125.681Z" fill="black"/>
<path d="M59.4224 125.681H52.0603V133.043H59.4224V125.681Z" fill="black"/>
<path d="M81.5086 125.681H74.1466V133.043H81.5086V125.681Z" fill="black"/>
<path d="M96.2328 125.681H88.8707V133.043H96.2328V125.681Z" fill="black"/>
<path d="M103.595 125.681H96.2328V133.043H103.595V125.681Z" fill="black"/>
<path d="M140.405 125.681H133.043V133.043H140.405V125.681Z" fill="black"/>
<path d="M155.129 125.681H147.767V133.043H155.129V125.681Z" fill="black"/>
<path d="M162.491 125.681H155.129V133.043H162.491V125.681Z" fill="black"/>
<path d="M177.216 125.681H169.853V133.043H177.216V125.681Z" fill="black"/>
<path d="M184.578 125.681H177.216V133.043H184.578V125.681Z" fill="black"/>
<path d="M191.94 125.681H184.578V133.043H191.94V125.681Z" fill="black"/>
<path d="M206.664 125.681H199.302V133.043H206.664V125.681Z" fill="black"/>
<path d="M214.026 125.681H206.664V133.043H214.026V125.681Z" fill="black"/>
<path d="M228.75 125.681H221.388V133.043H228.75V125.681Z" fill="black"/>
<path d="M29.9741 133.043H22.6121V140.405H29.9741V133.043Z" fill="black"/>
<path d="M37.3362 133.043H29.9741V140.405H37.3362V133.043Z" fill="black"/>
<path d="M44.6983 133.043H37.3362V140.405H44.6983V133.043Z" fill="black"/>
<path d="M52.0603 133.043H44.6983V140.405H52.0603V133.043Z" fill="black"/>
<path d="M66.7845 133.043H59.4224V140.405H66.7845V133.043Z" fill="black"/>
<path d="M81.5086 133.043H74.1466V140.405H81.5086V133.043Z" fill="black"/>
<path d="M103.595 133.043H96.2328V140.405H103.595V133.043Z" fill="black"/>
<path d="M118.319 133.043H110.957V140.405H118.319V133.043Z" fill="black"/>
<path d="M125.681 133.043H118.319V140.405H125.681V133.043Z" fill="black"/>
<path d="M155.129 133.043H147.767V140.405H155.129V133.043Z" fill="black"/>
<path d="M177.216 133.043H169.853V140.405H177.216V133.043Z" fill="black"/>
<path d="M191.94 133.043H184.578V140.405H191.94V133.043Z" fill="black"/>
<path d="M206.664 133.043H199.302V140.405H206.664V133.043Z" fill="black"/>
<path d="M22.6121 140.405H15.25V147.767H22.6121V140.405Z" fill="black"/>
<path d="M29.9741 140.405H22.6121V147.767H29.9741V140.405Z" fill="black"/>
<path d="M37.3362 140.405H29.9741V147.767H37.3362V140.405Z" fill="black"/>
<path d="M52.0603 140.405H44.6983V147.767H52.0603V140.405Z" fill="black"/>
<path d="M59.4224 140.405H52.0603V147.767H59.4224V140.405Z" fill="black"/>
<path d="M74.1466 140.405H66.7845V147.767H74.1466V140.405Z" fill="black"/>
<path d="M81.5086 140.405H74.1466V147.767H81.5086V140.405Z" fill="black"/>
<path d="M96.2328 140.405H88.8707V147.767H96.2328V140.405Z" fill="black"/>
<path d="M103.595 140.405H96.2328V147.767H103.595V140.405Z" fill="black"/>
<path d="M110.957 140.405H103.595V147.767H110.957V140.405Z" fill="black"/>
<path d="M118.319 140.405H110.957V147.767H118.319V140.405Z" fill="black"/>
<path d="M133.043 140.405H125.681V147.767H133.043V140.405Z" fill="black"/>
<path d="M140.405 140.405H133.043V147.767H140.405V140.405Z" fill="black"/>
<path d="M162.491 140.405H155.129V147.767H162.491V140.405Z" fill="black"/>
<path d="M169.853 140.405H162.491V147.767H169.853V140.405Z" fill="black"/>
<path d="M177.216 140.405H169.853V147.767H177.216V140.405Z" fill="black"/>
<path d="M191.94 140.405H184.578V147.767H191.94V140.405Z" fill="black"/>
<path d="M199.302 140.405H191.94V147.767H199.302V140.405Z" fill="black"/>
<path d="M206.664 140.405H199.302V147.767H206.664V140.405Z" fill="black"/>
<path d="M214.026 140.405H206.664V147.767H214.026V140.405Z" fill="black"/>
<path d="M221.388 140.405H214.026V147.767H221.388V140.405Z" fill="black"/>
<path d="M228.75 140.405H221.388V147.767H228.75V140.405Z" fill="black"/>
<path d="M29.9741 147.767H22.6121V155.129H29.9741V147.767Z" fill="black"/>
<path d="M52.0603 147.767H44.6983V155.129H52.0603V147.767Z" fill="black"/>
<path d="M66.7845 147.767H59.4224V155.129H66.7845V147.767Z" fill="black"/>
<path d="M74.1466 147.767H66.7845V155.129H74.1466V147.767Z" fill="black"/>
<path d="M88.8707 147.767H81.5086V155.129H88.8707V147.767Z" fill="black"/>
<path d="M96.2328 147.767H88.8707V155.129H96.2328V147.767Z" fill="black"/>
<path d="M118.319 147.767H110.957V155.129H118.319V147.767Z" fill="black"/>
<path d="M125.681 147.767H118.319V155.129H125.681V147.767Z" fill="black"/>
<path d="M133.043 147.767H125.681V155.129H133.043V147.767Z" fill="black"/>
<path d="M155.129 147.767H147.767V155.129H155.129V147.767Z" fill="black"/>
<path d="M162.491 147.767H155.129V155.129H162.491V147.767Z" fill="black"/>
<path d="M177.216 147.767H169.853V155.129H177.216V147.767Z" fill="black"/>
<path d="M184.578 147.767H177.216V155.129H184.578V147.767Z" fill="black"/>
<path d="M206.664 147.767H199.302V155.129H206.664V147.767Z" fill="black"/>
<path d="M214.026 147.767H206.664V155.129H214.026V147.767Z" fill="black"/>
<path d="M29.9741 155.129H22.6121V162.491H29.9741V155.129Z" fill="black"/>
<path d="M59.4224 155.129H52.0603V162.491H59.4224V155.129Z" fill="black"/>
<path d="M74.1466 155.129H66.7845V162.491H74.1466V155.129Z" fill="black"/>
<path d="M110.957 155.129H103.595V162.491H110.957V155.129Z" fill="black"/>
<path d="M133.043 155.129H125.681V162.491H133.043V155.129Z" fill="black"/>
<path d="M169.853 155.129H162.491V162.491H169.853V155.129Z" fill="black"/>
<path d="M184.578 155.129H177.216V162.491H184.578V155.129Z" fill="black"/>
<path d="M191.94 155.129H184.578V162.491H191.94V155.129Z" fill="black"/>
<path d="M199.302 155.129H191.94V162.491H199.302V155.129Z" fill="black"/>
<path d="M221.388 155.129H214.026V162.491H221.388V155.129Z" fill="black"/>
<path d="M37.3362 162.491H29.9741V169.853H37.3362V162.491Z" fill="black"/>
<path d="M44.6983 162.491H37.3362V169.853H44.6983V162.491Z" fill="black"/>
<path d="M59.4224 162.491H52.0603V169.853H59.4224V162.491Z" fill="black"/>
<path d="M66.7845 162.491H59.4224V169.853H66.7845V162.491Z" fill="black"/>
<path d="M74.1466 162.491H66.7845V169.853H74.1466V162.491Z" fill="black"/>
<path d="M81.5086 162.491H74.1466V169.853H81.5086V162.491Z" fill="black"/>
<path d="M88.8707 162.491H81.5086V169.853H88.8707V162.491Z" fill="black"/>
<path d="M103.595 162.491H96.2328V169.853H103.595V162.491Z" fill="black"/>
<path d="M125.681 162.491H118.319V169.853H125.681V162.491Z" fill="black"/>
<path d="M133.043 162.491H125.681V169.853H133.043V162.491Z" fill="black"/>
<path d="M140.405 162.491H133.043V169.853H140.405V162.491Z" fill="black"/>
<path d="M169.853 162.491H162.491V169.853H169.853V162.491Z" fill="black"/>
<path d="M177.216 162.491H169.853V169.853H177.216V162.491Z" fill="black"/>
<path d="M184.578 162.491H177.216V169.853H184.578V162.491Z" fill="black"/>
<path d="M191.94 162.491H184.578V169.853H191.94V162.491Z" fill="black"/>
<path d="M199.302 162.491H191.94V169.853H199.302V162.491Z" fill="black"/>
<path d="M221.388 162.491H214.026V169.853H221.388V162.491Z" fill="black"/>
<path d="M228.75 162.491H221.388V169.853H228.75V162.491Z" fill="black"/>
<path d="M81.5086 169.853H74.1466V177.216H81.5086V169.853Z" fill="black"/>
<path d="M88.8707 169.853H81.5086V177.216H88.8707V169.853Z" fill="black"/>
<path d="M96.2328 169.853H88.8707V177.216H96.2328V169.853Z" fill="black"/>
<path d="M110.957 169.853H103.595V177.216H110.957V169.853Z" fill="black"/>
<path d="M133.043 169.853H125.681V177.216H133.043V169.853Z" fill="black"/>
<path d="M140.405 169.853H133.043V177.216H140.405V169.853Z" fill="black"/>
<path d="M169.853 169.853H162.491V177.216H169.853V169.853Z" fill="black"/>
<path d="M199.302 169.853H191.94V177.216H199.302V169.853Z" fill="black"/>
<path d="M206.664 169.853H199.302V177.216H206.664V169.853Z" fill="black"/>
<path d="M22.6121 177.216H15.25V184.578H22.6121V177.216Z" fill="black"/>
<path d="M29.9741 177.216H22.6121V184.578H29.9741V177.216Z" fill="black"/>
<path d="M37.3362 177.216H29.9741V184.578H37.3362V177.216Z" fill="black"/>
<path d="M44.6983 177.216H37.3362V184.578H44.6983V177.216Z" fill="black"/>
<path d="M52.0603 177.216H44.6983V184.578H52.0603V177.216Z" fill="black"/>
<path d="M59.4224 177.216H52.0603V184.578H59.4224V177.216Z" fill="black"/>
<path d="M66.7845 177.216H59.4224V184.578H66.7845V177.216Z" fill="black"/>
<path d="M81.5086 177.216H74.1466V184.578H81.5086V177.216Z" fill="black"/>
<path d="M88.8707 177.216H81.5086V184.578H88.8707V177.216Z" fill="black"/>
<path d="M96.2328 177.216H88.8707V184.578H96.2328V177.216Z" fill="black"/>
<path d="M118.319 177.216H110.957V184.578H118.319V177.216Z" fill="black"/>
<path d="M133.043 177.216H125.681V184.578H133.043V177.216Z" fill="black"/>
<path d="M147.767 177.216H140.405V184.578H147.767V177.216Z" fill="black"/>
<path d="M169.853 177.216H162.491V184.578H169.853V177.216Z" fill="black"/>
<path d="M184.578 177.216H177.216V184.578H184.578V177.216Z" fill="black"/>
<path d="M199.302 177.216H191.94V184.578H199.302V177.216Z" fill="black"/>
<path d="M221.388 177.216H214.026V184.578H221.388V177.216Z" fill="black"/>
<path d="M22.6121 184.578H15.25V191.94H22.6121V184.578Z" fill="black"/>
<path d="M66.7845 184.578H59.4224V191.94H66.7845V184.578Z" fill="black"/>
<path d="M81.5086 184.578H74.1466V191.94H81.5086V184.578Z" fill="black"/>
<path d="M88.8707 184.578H81.5086V191.94H88.8707V184.578Z" fill="black"/>
<path d="M96.2328 184.578H88.8707V191.94H96.2328V184.578Z" fill="black"/>
<path d="M125.681 184.578H118.319V191.94H125.681V184.578Z" fill="black"/>
<path d="M133.043 184.578H125.681V191.94H133.043V184.578Z" fill="black"/>
<path d="M140.405 184.578H133.043V191.94H140.405V184.578Z" fill="black"/>
<path d="M147.767 184.578H140.405V191.94H147.767V184.578Z" fill="black"/>
<path d="M155.129 184.578H147.767V191.94H155.129V184.578Z" fill="black"/>
<path d="M162.491 184.578H155.129V191.94H162.491V184.578Z" fill="black"/>
<path d="M169.853 184.578H162.491V191.94H169.853V184.578Z" fill="black"/>
<path d="M199.302 184.578H191.94V191.94H199.302V184.578Z" fill="black"/>
<path d="M206.664 184.578H199.302V191.94H206.664V184.578Z" fill="black"/>
<path d="M22.6121 191.94H15.25V199.302H22.6121V191.94Z" fill="black"/>
<path d="M37.3362 191.94H29.9741V199.302H37.3362V191.94Z" fill="black"/>
<path d="M44.6983 191.94H37.3362V199.302H44.6983V191.94Z" fill="black"/>
<path d="M52.0603 191.94H44.6983V199.302H52.0603V191.94Z" fill="black"/>
<path d="M66.7845 191.94H59.4224V199.302H66.7845V191.94Z" fill="black"/>
<path d="M81.5086 191.94H74.1466V199.302H81.5086V191.94Z" fill="black"/>
<path d="M88.8707 191.94H81.5086V199.302H88.8707V191.94Z" fill="black"/>
<path d="M96.2328 191.94H88.8707V199.302H96.2328V191.94Z" fill="black"/>
<path d="M103.595 191.94H96.2328V199.302H103.595V191.94Z" fill="black"/>
<path d="M118.319 191.94H110.957V199.302H118.319V191.94Z" fill="black"/>
<path d="M147.767 191.94H140.405V199.302H147.767V191.94Z" fill="black"/>
<path d="M169.853 191.94H162.491V199.302H169.853V191.94Z" fill="black"/>
<path d="M177.216 191.94H169.853V199.302H177.216V191.94Z" fill="black"/>
<path d="M184.578 191.94H177.216V199.302H184.578V191.94Z" fill="black"/>
<path d="M191.94 191.94H184.578V199.302H191.94V191.94Z" fill="black"/>
<path d="M199.302 191.94H191.94V199.302H199.302V191.94Z" fill="black"/>
<path d="M228.75 191.94H221.388V199.302H228.75V191.94Z" fill="black"/>
<path d="M22.6121 199.302H15.25V206.664H22.6121V199.302Z" fill="black"/>
<path d="M37.3362 199.302H29.9741V206.664H37.3362V199.302Z" fill="black"/>
<path d="M44.6983 199.302H37.3362V206.664H44.6983V199.302Z" fill="black"/>
<path d="M52.0603 199.302H44.6983V206.664H52.0603V199.302Z" fill="black"/>
<path d="M66.7845 199.302H59.4224V206.664H66.7845V199.302Z" fill="black"/>
<path d="M81.5086 199.302H74.1466V206.664H81.5086V199.302Z" fill="black"/>
<path d="M88.8707 199.302H81.5086V206.664H88.8707V199.302Z" fill="black"/>
<path d="M103.595 199.302H96.2328V206.664H103.595V199.302Z" fill="black"/>
<path d="M118.319 199.302H110.957V206.664H118.319V199.302Z" fill="black"/>
<path d="M125.681 199.302H118.319V206.664H125.681V199.302Z" fill="black"/>
<path d="M147.767 199.302H140.405V206.664H147.767V199.302Z" fill="black"/>
<path d="M169.853 199.302H162.491V206.664H169.853V199.302Z" fill="black"/>
<path d="M184.578 199.302H177.216V206.664H184.578V199.302Z" fill="black"/>
<path d="M199.302 199.302H191.94V206.664H199.302V199.302Z" fill="black"/>
<path d="M214.026 199.302H206.664V206.664H214.026V199.302Z" fill="black"/>
<path d="M221.388 199.302H214.026V206.664H221.388V199.302Z" fill="black"/>
<path d="M228.75 199.302H221.388V206.664H228.75V199.302Z" fill="black"/>
<path d="M22.6121 206.664H15.25V214.026H22.6121V206.664Z" fill="black"/>
<path d="M37.3362 206.664H29.9741V214.026H37.3362V206.664Z" fill="black"/>
<path d="M44.6983 206.664H37.3362V214.026H44.6983V206.664Z" fill="black"/>
<path d="M52.0603 206.664H44.6983V214.026H52.0603V206.664Z" fill="black"/>
<path d="M66.7845 206.664H59.4224V214.026H66.7845V206.664Z" fill="black"/>
<path d="M88.8707 206.664H81.5086V214.026H88.8707V206.664Z" fill="black"/>
<path d="M118.319 206.664H110.957V214.026H118.319V206.664Z" fill="black"/>
<path d="M125.681 206.664H118.319V214.026H125.681V206.664Z" fill="black"/>
<path d="M155.129 206.664H147.767V214.026H155.129V206.664Z" fill="black"/>
<path d="M184.578 206.664H177.216V214.026H184.578V206.664Z" fill="black"/>
<path d="M214.026 206.664H206.664V214.026H214.026V206.664Z" fill="black"/>
<path d="M22.6121 214.026H15.25V221.388H22.6121V214.026Z" fill="black"/>
<path d="M66.7845 214.026H59.4224V221.388H66.7845V214.026Z" fill="black"/>
<path d="M88.8707 214.026H81.5086V221.388H88.8707V214.026Z" fill="black"/>
<path d="M103.595 214.026H96.2328V221.388H103.595V214.026Z" fill="black"/>
<path d="M110.957 214.026H103.595V221.388H110.957V214.026Z" fill="black"/>
<path d="M118.319 214.026H110.957V221.388H118.319V214.026Z" fill="black"/>
<path d="M133.043 214.026H125.681V221.388H133.043V214.026Z" fill="black"/>
<path d="M140.405 214.026H133.043V221.388H140.405V214.026Z" fill="black"/>
<path d="M147.767 214.026H140.405V221.388H147.767V214.026Z" fill="black"/>
<path d="M162.491 214.026H155.129V221.388H162.491V214.026Z" fill="black"/>
<path d="M191.94 214.026H184.578V221.388H191.94V214.026Z" fill="black"/>
<path d="M214.026 214.026H206.664V221.388H214.026V214.026Z" fill="black"/>
<path d="M221.388 214.026H214.026V221.388H221.388V214.026Z" fill="black"/>
<path d="M228.75 214.026H221.388V221.388H228.75V214.026Z" fill="black"/>
<path d="M22.6121 221.388H15.25V228.75H22.6121V221.388Z" fill="black"/>
<path d="M29.9741 221.388H22.6121V228.75H29.9741V221.388Z" fill="black"/>
<path d="M37.3362 221.388H29.9741V228.75H37.3362V221.388Z" fill="black"/>
<path d="M44.6983 221.388H37.3362V228.75H44.6983V221.388Z" fill="black"/>
<path d="M52.0603 221.388H44.6983V228.75H52.0603V221.388Z" fill="black"/>
<path d="M59.4224 221.388H52.0603V228.75H59.4224V221.388Z" fill="black"/>
<path d="M66.7845 221.388H59.4224V228.75H66.7845V221.388Z" fill="black"/>
<path d="M81.5086 221.388H74.1466V228.75H81.5086V221.388Z" fill="black"/>
<path d="M88.8707 221.388H81.5086V228.75H88.8707V221.388Z" fill="black"/>
<path d="M96.2328 221.388H88.8707V228.75H96.2328V221.388Z" fill="black"/>
<path d="M103.595 221.388H96.2328V228.75H103.595V221.388Z" fill="black"/>
<path d="M118.319 221.388H110.957V228.75H118.319V221.388Z" fill="black"/>
<path d="M125.681 221.388H118.319V228.75H125.681V221.388Z" fill="black"/>
<path d="M133.043 221.388H125.681V228.75H133.043V221.388Z" fill="black"/>
<path d="M147.767 221.388H140.405V228.75H147.767V221.388Z" fill="black"/>
<path d="M155.129 221.388H147.767V228.75H155.129V221.388Z" fill="black"/>
<path d="M162.491 221.388H155.129V228.75H162.491V221.388Z" fill="black"/>
<path d="M169.853 221.388H162.491V228.75H169.853V221.388Z" fill="black"/>
<path d="M177.216 221.388H169.853V228.75H177.216V221.388Z" fill="black"/>
<path d="M184.578 221.388H177.216V228.75H184.578V221.388Z" fill="black"/>
<path d="M191.94 221.388H184.578V228.75H191.94V221.388Z" fill="black"/>
<path d="M206.664 221.388H199.302V228.75H206.664V221.388Z" fill="black"/>
<path d="M214.026 221.388H206.664V228.75H214.026V221.388Z" fill="black"/>
<path d="M221.388 221.388H214.026V228.75H221.388V221.388Z" fill="black"/>
</g>
<defs>
<clipPath id="clip0_2166_2422">
<rect width="244" height="244" fill="white"/>
</clipPath>
</defs>
</svg>
