<svg width="24" height="24" viewBox="0 0 24 24" fill="none" xmlns="http://www.w3.org/2000/svg">
    <path d="M17.9999 9.5999C19.9881 9.5999 21.5999 7.98813 21.5999 5.9999C21.5999 4.01168 19.9881 2.3999 17.9999 2.3999C16.0117 2.3999 14.3999 4.01168 14.3999 5.9999C14.3999 6.15048 14.4091 6.29891 14.4271 6.44463L8.49902 9.40868C7.85154 8.78408 6.97059 8.3999 5.9999 8.3999C4.01168 8.3999 2.3999 10.0117 2.3999 11.9999C2.3999 13.9881 4.01168 15.5999 5.9999 15.5999C6.97061 15.5999 7.85158 15.2157 8.49906 14.5911L14.4271 17.5551C14.4092 17.7009 14.3999 17.8493 14.3999 17.9999C14.3999 19.9881 16.0117 21.5999 17.9999 21.5999C19.9881 21.5999 21.5999 19.9881 21.5999 17.9999C21.5999 16.0117 19.9881 14.3999 17.9999 14.3999C17.0292 14.3999 16.1483 14.7841 15.5008 15.4087L9.5727 12.4446C9.59066 12.2989 9.5999 12.1505 9.5999 11.9999C9.5999 11.8493 9.59065 11.7009 9.5727 11.5551L15.5007 8.59109C16.1482 9.21571 17.0292 9.5999 17.9999 9.5999Z" fill="#191B32"/>
</svg>
