<svg width="16" height="16" viewBox="0 0 16 16" fill="none" xmlns="http://www.w3.org/2000/svg">
    <g clip-path="url(#clip0_248_3730)">
        <path d="M10.5601 3.03977C10.5601 5.64777 10.5761 5.75977 10.8801 5.75977C11.1841 5.75977 11.2001 5.64777 11.2001 3.03977C11.2001 0.431766 11.1841 0.319766 10.8801 0.319766C10.5761 0.319766 10.5601 0.431766 10.5601 3.03977Z" fill="#191B32"/>
        <path d="M8.7998 1.07177C8.7998 1.32777 8.9918 2.47977 9.2158 3.63177C9.6158 5.64777 9.6638 5.75977 10.0158 5.75977C10.4958 5.75977 10.4958 5.75977 9.9998 3.34377C9.4398 0.527766 9.4718 0.639766 9.1198 0.639766C8.8798 0.639766 8.7998 0.751766 8.7998 1.07177Z" fill="#191B32"/>
        <path d="M12.2399 0.991766C12.0319 1.90377 11.3599 5.34377 11.3599 5.53577C11.3599 5.66377 11.5199 5.75977 11.7439 5.75977C12.0959 5.75977 12.1439 5.64777 12.5439 3.63177C13.0559 1.03977 13.0719 0.639766 12.6399 0.639766C12.4479 0.639766 12.2879 0.783766 12.2399 0.991766Z" fill="#191B32"/>
        <path d="M8.3841 6.62386C8.3361 6.73586 8.3201 7.15186 8.3521 7.53586L8.4001 8.23986L9.3121 8.28786L10.2241 8.33586L10.3201 9.18386C10.4481 10.1759 10.1601 11.8399 9.8561 11.8399C9.7441 11.8399 9.5041 12.0159 9.2961 12.2239C9.0081 12.5279 8.9601 12.7039 9.0401 13.2159C9.1201 13.7119 9.0561 13.9999 8.7361 14.5919L8.3361 15.3599H11.2961H14.2721L14.8161 14.8159L15.3601 14.2719V12.1599V10.0479L14.8161 9.50386C14.3521 9.03986 14.1601 8.95986 13.5361 8.95986C12.9121 8.95986 12.8001 8.91186 12.8001 8.65586C12.8001 8.47986 12.9441 8.28786 13.1201 8.23986C13.4081 8.14386 13.4561 8.01586 13.4081 7.31186L13.3601 6.47986L10.9121 6.43186C8.9281 6.39986 8.4641 6.43186 8.3841 6.62386ZM12.1921 8.91186C12.2401 9.42386 12.3041 9.53586 12.6401 9.56786C13.8241 9.72786 14.2721 9.93586 14.4961 10.4799C14.6241 10.7839 14.7201 11.2159 14.7201 11.4399C14.7201 11.8399 14.7201 11.8399 13.2161 11.8399H11.6961L11.5201 10.9439C11.2641 9.71186 11.4401 8.31986 11.8401 8.31986C12.0641 8.31986 12.1601 8.46386 12.1921 8.91186Z" fill="#191B32"/>
        <path d="M4.04804 7.02389C3.71204 7.23189 3.47204 7.55189 3.34404 7.99989C3.15204 8.62389 3.12004 8.63989 2.46404 8.63989C1.93604 8.63989 1.64804 8.73589 1.28004 9.07189C0.36804 9.88789 0.51204 11.5679 1.53604 12.0319C1.84004 12.1759 1.92004 12.3039 1.84004 12.5439C1.45604 13.7279 1.72804 14.6879 2.57604 15.1199C3.21604 15.4559 4.24004 15.3599 4.68804 14.9119C4.99204 14.5919 4.99204 14.5919 5.58404 14.9919C6.83204 15.8399 8.48004 15.0399 8.48004 13.5839C8.48004 13.2319 8.41604 12.8159 8.32004 12.6559C8.20804 12.4319 8.27204 12.2879 8.65604 12.0159C10.256 10.8319 9.48804 8.54389 7.56804 8.67189C6.91204 8.71989 6.88004 8.70389 6.88004 8.28789C6.88004 7.10389 5.15204 6.33589 4.04804 7.02389ZM5.44004 9.50389C5.44004 9.63189 5.36004 9.93589 5.26404 10.1919L5.08804 10.6399L4.86404 10.1119C4.73604 9.82389 4.67204 9.51989 4.72004 9.42389C4.88004 9.19989 5.44004 9.24789 5.44004 9.50389ZM4.08004 10.7999L4.56004 11.1839L3.98404 11.1999C3.39204 11.1999 2.92804 10.8639 3.12004 10.5599C3.28004 10.3039 3.56804 10.3679 4.08004 10.7999ZM6.96004 10.8159C6.96004 11.0559 6.83204 11.1359 6.32004 11.1679L5.68004 11.1999L6.14404 10.7999C6.64004 10.3359 6.96004 10.3519 6.96004 10.8159ZM4.56004 12.4479C4.44804 13.0239 4.11204 13.1999 3.82404 12.8479C3.64804 12.6399 3.68004 12.5439 4.08004 12.2239C4.64004 11.7919 4.70404 11.8239 4.56004 12.4479ZM6.36804 12.7039C6.28804 13.2479 5.92004 13.1679 5.68004 12.5759C5.36004 11.8079 5.37604 11.7759 5.92004 12.1119C6.24004 12.3039 6.40004 12.4959 6.36804 12.7039Z" fill="#191B32"/>
    </g>
    <defs>
        <clipPath id="clip0_248_3730">
            <rect width="16" height="16" fill="white"/>
        </clipPath>
    </defs>
</svg>
