<svg width="16" height="16" viewBox="0 0 16 16" fill="none" xmlns="http://www.w3.org/2000/svg">
    <path d="M4.88006 1.58422C3.90406 2.03222 3.48806 2.56022 3.55206 3.29622C3.58406 3.79222 3.69606 3.98422 4.11206 4.24022C4.40006 4.41622 4.62406 4.60822 4.64006 4.65622C4.64006 4.70422 4.35206 4.88022 3.98406 5.04022C3.08806 5.45622 2.56006 6.12822 2.56006 6.86422C2.56006 7.56822 2.94406 8.00022 3.92006 8.41622L4.56006 8.67222L3.60006 9.02422C1.12006 9.92022 -0.0319448 11.5842 0.960055 12.8482C1.42406 13.4402 3.05606 14.1762 4.51206 14.4802C6.14406 14.8002 9.85606 14.8002 11.4881 14.4802C12.9441 14.1762 14.5761 13.4402 15.0401 12.8482C15.4241 12.3682 15.4561 11.5362 15.1201 10.8802C14.8161 10.2722 13.6161 9.45622 12.4001 9.02422L11.4401 8.67222L12.0801 8.41622C12.4321 8.27222 12.8801 7.98422 13.0721 7.80822C13.5521 7.36022 13.5681 6.44822 13.1041 5.85622C12.7041 5.36022 11.2001 4.56022 10.3521 4.40022C9.72806 4.27222 9.48806 4.09622 9.76006 3.92022C9.84006 3.87222 9.92006 3.55222 9.92006 3.21622C9.92006 2.52822 9.40806 1.93622 8.44806 1.53622C7.60006 1.18422 5.69606 1.20022 4.88006 1.58422ZM6.72006 2.56022C6.72006 2.73622 5.45606 3.10422 5.31206 2.96022C5.24806 2.89622 5.34406 2.75222 5.50406 2.62422C5.85606 2.36822 6.72006 2.32022 6.72006 2.56022ZM7.36006 5.76022C7.36006 5.84022 7.05606 5.98422 6.68806 6.09622C6.30406 6.19221 5.72806 6.41621 5.39206 6.59222C4.62406 6.97622 4.40006 6.81622 5.02406 6.32022C5.74406 5.74422 7.36006 5.36022 7.36006 5.76022ZM8.09606 10.3842C8.03206 10.4802 7.64806 10.5602 7.23206 10.5602C6.32006 10.5602 4.81606 10.9282 3.87206 11.3922C3.10406 11.7602 2.76806 11.6482 3.32806 11.2002C3.84006 10.7842 5.58406 10.2402 6.84806 10.0962C7.92006 9.98422 8.28806 10.0642 8.09606 10.3842Z" fill="#191B32"/>
</svg>
