<svg width="16" height="16" viewBox="0 0 16 16" fill="none" xmlns="http://www.w3.org/2000/svg">
    <path fill-rule="evenodd" clip-rule="evenodd" d="M2.3999 3.1999C2.3999 2.75807 2.75807 2.3999 3.1999 2.3999H12.7999C13.2417 2.3999 13.5999 2.75807 13.5999 3.1999C13.5999 3.64173 13.2417 3.9999 12.7999 3.9999H3.1999C2.75807 3.9999 2.3999 3.64173 2.3999 3.1999ZM2.3999 6.3999C2.3999 5.95807 2.75807 5.5999 3.1999 5.5999H12.7999C13.2417 5.5999 13.5999 5.95807 13.5999 6.3999C13.5999 6.84173 13.2417 7.1999 12.7999 7.1999H3.1999C2.75807 7.1999 2.3999 6.84173 2.3999 6.3999ZM2.3999 9.5999C2.3999 9.15808 2.75807 8.7999 3.1999 8.7999H12.7999C13.2417 8.7999 13.5999 9.15808 13.5999 9.5999C13.5999 10.0417 13.2417 10.3999 12.7999 10.3999H3.1999C2.75807 10.3999 2.3999 10.0417 2.3999 9.5999ZM2.3999 12.7999C2.3999 12.3581 2.75807 11.9999 3.1999 11.9999H12.7999C13.2417 11.9999 13.5999 12.3581 13.5999 12.7999C13.5999 13.2417 13.2417 13.5999 12.7999 13.5999H3.1999C2.75807 13.5999 2.3999 13.2417 2.3999 12.7999Z" fill="white"/>
</svg>
