<svg width="16" height="16" viewBox="0 0 16 16" fill="none" xmlns="http://www.w3.org/2000/svg">
    <g clip-path="url(#clip0_248_3739)">
        <path d="M0.640137 2.86392V5.08792L1.31214 5.31192C1.95214 5.50392 2.01614 5.58392 2.48014 6.68792C3.08814 8.19192 3.63214 8.81592 5.72814 10.4959C7.68014 12.0479 8.00014 12.4479 8.00014 13.3919C8.00014 13.8719 8.09614 14.1759 8.33614 14.4159C8.65614 14.7359 8.80014 14.7519 9.90414 14.6719C11.0081 14.5759 11.1841 14.6079 11.7601 14.9599C12.4961 15.4239 13.6001 15.5039 13.9201 15.1199C14.0321 14.9919 14.2081 14.8799 14.3361 14.8799C14.4481 14.8799 14.7361 14.7999 14.9601 14.6879C15.2961 14.5439 15.3601 14.3999 15.3281 14.0159C15.2961 13.7279 15.1841 13.5039 15.0401 13.4879C13.8721 13.3439 13.5201 13.1839 12.3681 12.3039C11.6801 11.7759 10.8161 10.9279 10.4321 10.4319L9.74414 9.51992L10.1921 9.34392C10.6561 9.13592 10.8321 8.73592 10.8641 7.66392L10.8801 7.08792L9.87214 7.00792C9.32814 6.95992 8.59214 6.78392 8.24014 6.59192C7.28014 6.11192 5.82414 4.49592 5.29614 3.32792C5.05614 2.76792 4.70414 2.20792 4.54414 2.06392C4.17614 1.74392 1.40814 0.639919 0.960137 0.639919C0.656137 0.639919 0.640137 0.751919 0.640137 2.86392ZM6.41614 6.33592C7.02414 6.99192 8.04814 7.51992 9.07214 7.69592C9.96814 7.85592 10.0321 7.88792 9.95214 8.25592C9.88814 8.60792 9.82414 8.63992 9.29614 8.54392C7.92014 8.31992 7.13614 7.95192 6.27214 7.11992C5.47214 6.33592 5.31214 5.91992 5.82414 5.91992C5.93614 5.91992 6.19214 6.11192 6.41614 6.33592Z" fill="#191B32"/>
    </g>
    <defs>
        <clipPath id="clip0_248_3739">
            <rect width="16" height="16" fill="white"/>
        </clipPath>
    </defs>
</svg>
